<?xml version="1.0" encoding="utf-8" standalone="no"?>
<!DOCTYPE svg PUBLIC "-//W3C//DTD SVG 1.1//EN"
  "http://www.w3.org/Graphics/SVG/1.1/DTD/svg11.dtd">
<!-- Created with matplotlib (http://matplotlib.org/) -->
<svg height="540pt" version="1.1" viewBox="0 0 792 540" width="792pt" xmlns="http://www.w3.org/2000/svg" xmlns:xlink="http://www.w3.org/1999/xlink">
 <defs>
  <style type="text/css">
*{stroke-linecap:butt;stroke-linejoin:round;}
  </style>
 </defs>
 <g id="figure_1">
  <g id="patch_1">
   <path d="M 0 540 
L 792 540 
L 792 0 
L 0 0 
z
" style="fill:#ffffff;"/>
  </g>
  <g id="axes_1">
   <g id="patch_2">
    <path d="M 57.81875 496.4375 
L 759.825 496.4375 
L 759.825 23.0625 
L 57.81875 23.0625 
z
" style="fill:#f4f4f4;"/>
   </g>
   <g id="PolyCollection_1">
    <path clip-path="url(#p0c37161966)" d="M 57.81875 496.939905 
L 57.81875 473.405391 
L 82.890402 459.228162 
L 107.962054 453.733112 
L 133.033705 438.174271 
L 158.105357 434.312036 
L 183.177009 427.011469 
L 208.248661 417.685585 
L 233.320312 400.054324 
L 258.391964 389.959133 
L 283.463616 413.650648 
L 308.535268 388.420519 
L 333.60692 390.916841 
L 358.678571 381.355455 
L 383.750223 370.585157 
L 408.821875 359.783459 
L 433.893527 337.410755 
L 458.965179 310.453611 
L 484.03683 297.987697 
L 509.108482 283.747668 
L 534.180134 259.80495 
L 559.251786 297.343991 
L 584.323437 286.934797 
L 609.395089 264.734795 
L 634.466741 250.620367 
L 659.538393 225.876942 
L 684.610045 172.355156 
L 709.681696 108.125873 
L 734.753348 23.0625 
L 759.825 41.855571 
L 759.825 496.939905 
L 759.825 496.939905 
L 734.753348 496.939905 
L 709.681696 496.939905 
L 684.610045 496.939905 
L 659.538393 496.939905 
L 634.466741 496.939905 
L 609.395089 496.939905 
L 584.323437 496.939905 
L 559.251786 496.939905 
L 534.180134 496.939905 
L 509.108482 496.939905 
L 484.03683 496.939905 
L 458.965179 496.939905 
L 433.893527 496.939905 
L 408.821875 496.939905 
L 383.750223 496.939905 
L 358.678571 496.939905 
L 333.60692 496.939905 
L 308.535268 496.939905 
L 283.463616 496.939905 
L 258.391964 496.939905 
L 233.320312 496.939905 
L 208.248661 496.939905 
L 183.177009 496.939905 
L 158.105357 496.939905 
L 133.033705 496.939905 
L 107.962054 496.939905 
L 82.890402 496.939905 
L 57.81875 496.939905 
z
" style="fill:#1f77b4;fill-opacity:0.25;"/>
   </g>
   <g id="PolyCollection_2">
    <path clip-path="url(#p0c37161966)" d="M 57.81875 496.939905 
L 57.81875 495.935095 
L 82.890402 491.444855 
L 107.962054 488.194925 
L 133.033705 487.504119 
L 158.105357 485.745703 
L 183.177009 485.635802 
L 208.248661 425.881059 
L 233.320312 265.017398 
L 258.391964 180.330829 
L 283.463616 177.473403 
L 308.535268 152.902679 
L 333.60692 133.795606 
L 358.678571 74.951471 
L 383.750223 183.847661 
L 408.821875 451.896195 
L 433.893527 451.142589 
L 458.965179 446.793649 
L 484.03683 438.425473 
L 509.108482 429.460692 
L 534.180134 418.219389 
L 559.251786 405.580775 
L 584.323437 394.967478 
L 609.395089 382.030561 
L 634.466741 374.965497 
L 659.538393 358.637348 
L 684.610045 311.364219 
L 709.681696 280.968743 
L 734.753348 267.545121 
L 759.825 273.244273 
L 759.825 496.939905 
L 759.825 496.939905 
L 734.753348 496.939905 
L 709.681696 496.939905 
L 684.610045 496.939905 
L 659.538393 496.939905 
L 634.466741 496.939905 
L 609.395089 496.939905 
L 584.323437 496.939905 
L 559.251786 496.939905 
L 534.180134 496.939905 
L 509.108482 496.939905 
L 484.03683 496.939905 
L 458.965179 496.939905 
L 433.893527 496.939905 
L 408.821875 496.939905 
L 383.750223 496.939905 
L 358.678571 496.939905 
L 333.60692 496.939905 
L 308.535268 496.939905 
L 283.463616 496.939905 
L 258.391964 496.939905 
L 233.320312 496.939905 
L 208.248661 496.939905 
L 183.177009 496.939905 
L 158.105357 496.939905 
L 133.033705 496.939905 
L 107.962054 496.939905 
L 82.890402 496.939905 
L 57.81875 496.939905 
z
" style="fill:#ff7f0e;fill-opacity:0.25;"/>
   </g>
   <g id="PolyCollection_3">
    <path clip-path="url(#p0c37161966)" d="M 57.81875 496.939905 
L 57.81875 477.848531 
L 82.890402 466.167625 
L 107.962054 468.177243 
L 133.033705 472.902986 
L 158.105357 471.709775 
L 183.177009 474.237498 
L 208.248661 469.98276 
L 233.320312 468.444146 
L 258.391964 469.370454 
L 283.463616 472.793085 
L 308.535268 470.296763 
L 333.60692 473.075688 
L 358.678571 472.117979 
L 383.750223 468.601147 
L 408.821875 465.414018 
L 433.893527 462.399591 
L 458.965179 458.317554 
L 484.03683 451.974696 
L 509.108482 445.85164 
L 534.180134 438.174271 
L 559.251786 442.601711 
L 584.323437 434.107934 
L 609.395089 429.711894 
L 634.466741 423.997042 
L 659.538393 419.318399 
L 684.610045 397.950505 
L 709.681696 388.247817 
L 734.753348 383.145271 
L 759.825 399.394918 
L 759.825 496.939905 
L 759.825 496.939905 
L 734.753348 496.939905 
L 709.681696 496.939905 
L 684.610045 496.939905 
L 659.538393 496.939905 
L 634.466741 496.939905 
L 609.395089 496.939905 
L 584.323437 496.939905 
L 559.251786 496.939905 
L 534.180134 496.939905 
L 509.108482 496.939905 
L 484.03683 496.939905 
L 458.965179 496.939905 
L 433.893527 496.939905 
L 408.821875 496.939905 
L 383.750223 496.939905 
L 358.678571 496.939905 
L 333.60692 496.939905 
L 308.535268 496.939905 
L 283.463616 496.939905 
L 258.391964 496.939905 
L 233.320312 496.939905 
L 208.248661 496.939905 
L 183.177009 496.939905 
L 158.105357 496.939905 
L 133.033705 496.939905 
L 107.962054 496.939905 
L 82.890402 496.939905 
L 57.81875 496.939905 
z
" style="fill:#2ca02c;fill-opacity:0.25;"/>
   </g>
   <g id="PolyCollection_4">
    <path clip-path="url(#p0c37161966)" d="M 57.81875 496.939905 
L 57.81875 496.4375 
L 82.890402 495.32279 
L 107.962054 494.631984 
L 133.033705 494.349381 
L 158.105357 493.956877 
L 183.177009 493.250371 
L 208.248661 493.10907 
L 233.320312 492.481064 
L 258.391964 492.119961 
L 283.463616 492.07286 
L 308.535268 491.193652 
L 333.60692 491.209353 
L 358.678571 489.215434 
L 383.750223 486.389409 
L 408.821875 482.684175 
L 433.893527 478.649238 
L 458.965179 475.258008 
L 484.03683 480.564656 
L 509.108482 475.55631 
L 534.180134 471.945278 
L 559.251786 467.360836 
L 584.323437 462.179789 
L 609.395089 459.746267 
L 634.466741 450.781485 
L 659.538393 441.4085 
L 684.610045 420.841313 
L 709.681696 400.431128 
L 734.753348 371.432964 
L 759.825 309.197599 
L 759.825 496.939905 
L 759.825 496.939905 
L 734.753348 496.939905 
L 709.681696 496.939905 
L 684.610045 496.939905 
L 659.538393 496.939905 
L 634.466741 496.939905 
L 609.395089 496.939905 
L 584.323437 496.939905 
L 559.251786 496.939905 
L 534.180134 496.939905 
L 509.108482 496.939905 
L 484.03683 496.939905 
L 458.965179 496.939905 
L 433.893527 496.939905 
L 408.821875 496.939905 
L 383.750223 496.939905 
L 358.678571 496.939905 
L 333.60692 496.939905 
L 308.535268 496.939905 
L 283.463616 496.939905 
L 258.391964 496.939905 
L 233.320312 496.939905 
L 208.248661 496.939905 
L 183.177009 496.939905 
L 158.105357 496.939905 
L 133.033705 496.939905 
L 107.962054 496.939905 
L 82.890402 496.939905 
L 57.81875 496.939905 
z
" style="fill:#d62728;fill-opacity:0.25;"/>
   </g>
   <g id="PolyCollection_5">
    <path clip-path="url(#p0c37161966)" d="M 57.81875 496.939905 
L 57.81875 494.741885 
L 82.890402 491.162252 
L 107.962054 490.298744 
L 133.033705 491.429155 
L 158.105357 489.81204 
L 183.177009 490.581347 
L 208.248661 491.225053 
L 233.320312 491.020951 
L 258.391964 491.083751 
L 283.463616 491.711757 
L 308.535268 491.900159 
L 333.60692 491.334954 
L 358.678571 491.287853 
L 383.750223 490.518546 
L 408.821875 490.424345 
L 433.893527 489.670739 
L 458.965179 488.556028 
L 484.03683 489.419536 
L 509.108482 488.948532 
L 534.180134 487.331417 
L 559.251786 487.174416 
L 584.323437 486.373709 
L 609.395089 485.4003 
L 634.466741 484.630993 
L 659.538393 482.652775 
L 684.610045 478.382336 
L 709.681696 474.4573 
L 734.753348 468.192943 
L 759.825 452.869604 
L 759.825 496.939905 
L 759.825 496.939905 
L 734.753348 496.939905 
L 709.681696 496.939905 
L 684.610045 496.939905 
L 659.538393 496.939905 
L 634.466741 496.939905 
L 609.395089 496.939905 
L 584.323437 496.939905 
L 559.251786 496.939905 
L 534.180134 496.939905 
L 509.108482 496.939905 
L 484.03683 496.939905 
L 458.965179 496.939905 
L 433.893527 496.939905 
L 408.821875 496.939905 
L 383.750223 496.939905 
L 358.678571 496.939905 
L 333.60692 496.939905 
L 308.535268 496.939905 
L 283.463616 496.939905 
L 258.391964 496.939905 
L 233.320312 496.939905 
L 208.248661 496.939905 
L 183.177009 496.939905 
L 158.105357 496.939905 
L 133.033705 496.939905 
L 107.962054 496.939905 
L 82.890402 496.939905 
L 57.81875 496.939905 
z
" style="fill:#9467bd;fill-opacity:0.25;"/>
   </g>
   <g id="matplotlib.axis_1">
    <g id="xtick_1">
     <g id="line2d_1">
      <path clip-path="url(#p0c37161966)" d="M 107.962054 496.4375 
L 107.962054 23.0625 
" style="fill:none;stroke:#ffffff;stroke-linecap:square;stroke-width:0.8;"/>
     </g>
     <g id="line2d_2">
      <defs>
       <path d="M 0 0 
L 0 3.5 
" id="m036549667c" style="stroke:#000000;stroke-width:0.8;"/>
      </defs>
      <g>
       <use style="stroke:#000000;stroke-width:0.8;" x="107.962054" xlink:href="#m036549667c" y="496.4375"/>
      </g>
     </g>
     <g id="text_1">
      <!-- 1992 -->
      <defs>
       <path d="M 12.40625 8.296875 
L 28.515625 8.296875 
L 28.515625 63.921875 
L 10.984375 60.40625 
L 10.984375 69.390625 
L 28.421875 72.90625 
L 38.28125 72.90625 
L 38.28125 8.296875 
L 54.390625 8.296875 
L 54.390625 0 
L 12.40625 0 
z
" id="DejaVuSans-31"/>
       <path d="M 10.984375 1.515625 
L 10.984375 10.5 
Q 14.703125 8.734375 18.5 7.8125 
Q 22.3125 6.890625 25.984375 6.890625 
Q 35.75 6.890625 40.890625 13.453125 
Q 46.046875 20.015625 46.78125 33.40625 
Q 43.953125 29.203125 39.59375 26.953125 
Q 35.25 24.703125 29.984375 24.703125 
Q 19.046875 24.703125 12.671875 31.3125 
Q 6.296875 37.9375 6.296875 49.421875 
Q 6.296875 60.640625 12.9375 67.421875 
Q 19.578125 74.21875 30.609375 74.21875 
Q 43.265625 74.21875 49.921875 64.515625 
Q 56.59375 54.828125 56.59375 36.375 
Q 56.59375 19.140625 48.40625 8.859375 
Q 40.234375 -1.421875 26.421875 -1.421875 
Q 22.703125 -1.421875 18.890625 -0.6875 
Q 15.09375 0.046875 10.984375 1.515625 
z
M 30.609375 32.421875 
Q 37.25 32.421875 41.125 36.953125 
Q 45.015625 41.5 45.015625 49.421875 
Q 45.015625 57.28125 41.125 61.84375 
Q 37.25 66.40625 30.609375 66.40625 
Q 23.96875 66.40625 20.09375 61.84375 
Q 16.21875 57.28125 16.21875 49.421875 
Q 16.21875 41.5 20.09375 36.953125 
Q 23.96875 32.421875 30.609375 32.421875 
z
" id="DejaVuSans-39"/>
       <path d="M 19.1875 8.296875 
L 53.609375 8.296875 
L 53.609375 0 
L 7.328125 0 
L 7.328125 8.296875 
Q 12.9375 14.109375 22.625 23.890625 
Q 32.328125 33.6875 34.8125 36.53125 
Q 39.546875 41.84375 41.421875 45.53125 
Q 43.3125 49.21875 43.3125 52.78125 
Q 43.3125 58.59375 39.234375 62.25 
Q 35.15625 65.921875 28.609375 65.921875 
Q 23.96875 65.921875 18.8125 64.3125 
Q 13.671875 62.703125 7.8125 59.421875 
L 7.8125 69.390625 
Q 13.765625 71.78125 18.9375 73 
Q 24.125 74.21875 28.421875 74.21875 
Q 39.75 74.21875 46.484375 68.546875 
Q 53.21875 62.890625 53.21875 53.421875 
Q 53.21875 48.921875 51.53125 44.890625 
Q 49.859375 40.875 45.40625 35.40625 
Q 44.1875 33.984375 37.640625 27.21875 
Q 31.109375 20.453125 19.1875 8.296875 
z
" id="DejaVuSans-32"/>
      </defs>
      <g transform="translate(103.989242 529.277065)rotate(-60)scale(0.1 -0.1)">
       <use xlink:href="#DejaVuSans-31"/>
       <use x="63.623047" xlink:href="#DejaVuSans-39"/>
       <use x="127.246094" xlink:href="#DejaVuSans-39"/>
       <use x="190.869141" xlink:href="#DejaVuSans-32"/>
      </g>
     </g>
    </g>
    <g id="xtick_2">
     <g id="line2d_3">
      <path clip-path="url(#p0c37161966)" d="M 183.177009 496.4375 
L 183.177009 23.0625 
" style="fill:none;stroke:#ffffff;stroke-linecap:square;stroke-width:0.8;"/>
     </g>
     <g id="line2d_4">
      <g>
       <use style="stroke:#000000;stroke-width:0.8;" x="183.177009" xlink:href="#m036549667c" y="496.4375"/>
      </g>
     </g>
     <g id="text_2">
      <!-- 1995 -->
      <defs>
       <path d="M 10.796875 72.90625 
L 49.515625 72.90625 
L 49.515625 64.59375 
L 19.828125 64.59375 
L 19.828125 46.734375 
Q 21.96875 47.46875 24.109375 47.828125 
Q 26.265625 48.1875 28.421875 48.1875 
Q 40.625 48.1875 47.75 41.5 
Q 54.890625 34.8125 54.890625 23.390625 
Q 54.890625 11.625 47.5625 5.09375 
Q 40.234375 -1.421875 26.90625 -1.421875 
Q 22.3125 -1.421875 17.546875 -0.640625 
Q 12.796875 0.140625 7.71875 1.703125 
L 7.71875 11.625 
Q 12.109375 9.234375 16.796875 8.0625 
Q 21.484375 6.890625 26.703125 6.890625 
Q 35.15625 6.890625 40.078125 11.328125 
Q 45.015625 15.765625 45.015625 23.390625 
Q 45.015625 31 40.078125 35.4375 
Q 35.15625 39.890625 26.703125 39.890625 
Q 22.75 39.890625 18.8125 39.015625 
Q 14.890625 38.140625 10.796875 36.28125 
z
" id="DejaVuSans-35"/>
      </defs>
      <g transform="translate(179.204198 529.277065)rotate(-60)scale(0.1 -0.1)">
       <use xlink:href="#DejaVuSans-31"/>
       <use x="63.623047" xlink:href="#DejaVuSans-39"/>
       <use x="127.246094" xlink:href="#DejaVuSans-39"/>
       <use x="190.869141" xlink:href="#DejaVuSans-35"/>
      </g>
     </g>
    </g>
    <g id="xtick_3">
     <g id="line2d_5">
      <path clip-path="url(#p0c37161966)" d="M 258.391964 496.4375 
L 258.391964 23.0625 
" style="fill:none;stroke:#ffffff;stroke-linecap:square;stroke-width:0.8;"/>
     </g>
     <g id="line2d_6">
      <g>
       <use style="stroke:#000000;stroke-width:0.8;" x="258.391964" xlink:href="#m036549667c" y="496.4375"/>
      </g>
     </g>
     <g id="text_3">
      <!-- 1998 -->
      <defs>
       <path d="M 31.78125 34.625 
Q 24.75 34.625 20.71875 30.859375 
Q 16.703125 27.09375 16.703125 20.515625 
Q 16.703125 13.921875 20.71875 10.15625 
Q 24.75 6.390625 31.78125 6.390625 
Q 38.8125 6.390625 42.859375 10.171875 
Q 46.921875 13.96875 46.921875 20.515625 
Q 46.921875 27.09375 42.890625 30.859375 
Q 38.875 34.625 31.78125 34.625 
z
M 21.921875 38.8125 
Q 15.578125 40.375 12.03125 44.71875 
Q 8.5 49.078125 8.5 55.328125 
Q 8.5 64.0625 14.71875 69.140625 
Q 20.953125 74.21875 31.78125 74.21875 
Q 42.671875 74.21875 48.875 69.140625 
Q 55.078125 64.0625 55.078125 55.328125 
Q 55.078125 49.078125 51.53125 44.71875 
Q 48 40.375 41.703125 38.8125 
Q 48.828125 37.15625 52.796875 32.3125 
Q 56.78125 27.484375 56.78125 20.515625 
Q 56.78125 9.90625 50.3125 4.234375 
Q 43.84375 -1.421875 31.78125 -1.421875 
Q 19.734375 -1.421875 13.25 4.234375 
Q 6.78125 9.90625 6.78125 20.515625 
Q 6.78125 27.484375 10.78125 32.3125 
Q 14.796875 37.15625 21.921875 38.8125 
z
M 18.3125 54.390625 
Q 18.3125 48.734375 21.84375 45.5625 
Q 25.390625 42.390625 31.78125 42.390625 
Q 38.140625 42.390625 41.71875 45.5625 
Q 45.3125 48.734375 45.3125 54.390625 
Q 45.3125 60.0625 41.71875 63.234375 
Q 38.140625 66.40625 31.78125 66.40625 
Q 25.390625 66.40625 21.84375 63.234375 
Q 18.3125 60.0625 18.3125 54.390625 
z
" id="DejaVuSans-38"/>
      </defs>
      <g transform="translate(254.419153 529.277065)rotate(-60)scale(0.1 -0.1)">
       <use xlink:href="#DejaVuSans-31"/>
       <use x="63.623047" xlink:href="#DejaVuSans-39"/>
       <use x="127.246094" xlink:href="#DejaVuSans-39"/>
       <use x="190.869141" xlink:href="#DejaVuSans-38"/>
      </g>
     </g>
    </g>
    <g id="xtick_4">
     <g id="line2d_7">
      <path clip-path="url(#p0c37161966)" d="M 333.60692 496.4375 
L 333.60692 23.0625 
" style="fill:none;stroke:#ffffff;stroke-linecap:square;stroke-width:0.8;"/>
     </g>
     <g id="line2d_8">
      <g>
       <use style="stroke:#000000;stroke-width:0.8;" x="333.60692" xlink:href="#m036549667c" y="496.4375"/>
      </g>
     </g>
     <g id="text_4">
      <!-- 2001 -->
      <defs>
       <path d="M 31.78125 66.40625 
Q 24.171875 66.40625 20.328125 58.90625 
Q 16.5 51.421875 16.5 36.375 
Q 16.5 21.390625 20.328125 13.890625 
Q 24.171875 6.390625 31.78125 6.390625 
Q 39.453125 6.390625 43.28125 13.890625 
Q 47.125 21.390625 47.125 36.375 
Q 47.125 51.421875 43.28125 58.90625 
Q 39.453125 66.40625 31.78125 66.40625 
z
M 31.78125 74.21875 
Q 44.046875 74.21875 50.515625 64.515625 
Q 56.984375 54.828125 56.984375 36.375 
Q 56.984375 17.96875 50.515625 8.265625 
Q 44.046875 -1.421875 31.78125 -1.421875 
Q 19.53125 -1.421875 13.0625 8.265625 
Q 6.59375 17.96875 6.59375 36.375 
Q 6.59375 54.828125 13.0625 64.515625 
Q 19.53125 74.21875 31.78125 74.21875 
z
" id="DejaVuSans-30"/>
      </defs>
      <g transform="translate(329.634108 529.277065)rotate(-60)scale(0.1 -0.1)">
       <use xlink:href="#DejaVuSans-32"/>
       <use x="63.623047" xlink:href="#DejaVuSans-30"/>
       <use x="127.246094" xlink:href="#DejaVuSans-30"/>
       <use x="190.869141" xlink:href="#DejaVuSans-31"/>
      </g>
     </g>
    </g>
    <g id="xtick_5">
     <g id="line2d_9">
      <path clip-path="url(#p0c37161966)" d="M 408.821875 496.4375 
L 408.821875 23.0625 
" style="fill:none;stroke:#ffffff;stroke-linecap:square;stroke-width:0.8;"/>
     </g>
     <g id="line2d_10">
      <g>
       <use style="stroke:#000000;stroke-width:0.8;" x="408.821875" xlink:href="#m036549667c" y="496.4375"/>
      </g>
     </g>
     <g id="text_5">
      <!-- 2004 -->
      <defs>
       <path d="M 37.796875 64.3125 
L 12.890625 25.390625 
L 37.796875 25.390625 
z
M 35.203125 72.90625 
L 47.609375 72.90625 
L 47.609375 25.390625 
L 58.015625 25.390625 
L 58.015625 17.1875 
L 47.609375 17.1875 
L 47.609375 0 
L 37.796875 0 
L 37.796875 17.1875 
L 4.890625 17.1875 
L 4.890625 26.703125 
z
" id="DejaVuSans-34"/>
      </defs>
      <g transform="translate(404.849064 529.277065)rotate(-60)scale(0.1 -0.1)">
       <use xlink:href="#DejaVuSans-32"/>
       <use x="63.623047" xlink:href="#DejaVuSans-30"/>
       <use x="127.246094" xlink:href="#DejaVuSans-30"/>
       <use x="190.869141" xlink:href="#DejaVuSans-34"/>
      </g>
     </g>
    </g>
    <g id="xtick_6">
     <g id="line2d_11">
      <path clip-path="url(#p0c37161966)" d="M 484.03683 496.4375 
L 484.03683 23.0625 
" style="fill:none;stroke:#ffffff;stroke-linecap:square;stroke-width:0.8;"/>
     </g>
     <g id="line2d_12">
      <g>
       <use style="stroke:#000000;stroke-width:0.8;" x="484.03683" xlink:href="#m036549667c" y="496.4375"/>
      </g>
     </g>
     <g id="text_6">
      <!-- 2007 -->
      <defs>
       <path d="M 8.203125 72.90625 
L 55.078125 72.90625 
L 55.078125 68.703125 
L 28.609375 0 
L 18.3125 0 
L 43.21875 64.59375 
L 8.203125 64.59375 
z
" id="DejaVuSans-37"/>
      </defs>
      <g transform="translate(480.064019 529.277065)rotate(-60)scale(0.1 -0.1)">
       <use xlink:href="#DejaVuSans-32"/>
       <use x="63.623047" xlink:href="#DejaVuSans-30"/>
       <use x="127.246094" xlink:href="#DejaVuSans-30"/>
       <use x="190.869141" xlink:href="#DejaVuSans-37"/>
      </g>
     </g>
    </g>
    <g id="xtick_7">
     <g id="line2d_13">
      <path clip-path="url(#p0c37161966)" d="M 559.251786 496.4375 
L 559.251786 23.0625 
" style="fill:none;stroke:#ffffff;stroke-linecap:square;stroke-width:0.8;"/>
     </g>
     <g id="line2d_14">
      <g>
       <use style="stroke:#000000;stroke-width:0.8;" x="559.251786" xlink:href="#m036549667c" y="496.4375"/>
      </g>
     </g>
     <g id="text_7">
      <!-- 2010 -->
      <g transform="translate(555.278975 529.277065)rotate(-60)scale(0.1 -0.1)">
       <use xlink:href="#DejaVuSans-32"/>
       <use x="63.623047" xlink:href="#DejaVuSans-30"/>
       <use x="127.246094" xlink:href="#DejaVuSans-31"/>
       <use x="190.869141" xlink:href="#DejaVuSans-30"/>
      </g>
     </g>
    </g>
    <g id="xtick_8">
     <g id="line2d_15">
      <path clip-path="url(#p0c37161966)" d="M 634.466741 496.4375 
L 634.466741 23.0625 
" style="fill:none;stroke:#ffffff;stroke-linecap:square;stroke-width:0.8;"/>
     </g>
     <g id="line2d_16">
      <g>
       <use style="stroke:#000000;stroke-width:0.8;" x="634.466741" xlink:href="#m036549667c" y="496.4375"/>
      </g>
     </g>
     <g id="text_8">
      <!-- 2013 -->
      <defs>
       <path d="M 40.578125 39.3125 
Q 47.65625 37.796875 51.625 33 
Q 55.609375 28.21875 55.609375 21.1875 
Q 55.609375 10.40625 48.1875 4.484375 
Q 40.765625 -1.421875 27.09375 -1.421875 
Q 22.515625 -1.421875 17.65625 -0.515625 
Q 12.796875 0.390625 7.625 2.203125 
L 7.625 11.71875 
Q 11.71875 9.328125 16.59375 8.109375 
Q 21.484375 6.890625 26.8125 6.890625 
Q 36.078125 6.890625 40.9375 10.546875 
Q 45.796875 14.203125 45.796875 21.1875 
Q 45.796875 27.640625 41.28125 31.265625 
Q 36.765625 34.90625 28.71875 34.90625 
L 20.21875 34.90625 
L 20.21875 43.015625 
L 29.109375 43.015625 
Q 36.375 43.015625 40.234375 45.921875 
Q 44.09375 48.828125 44.09375 54.296875 
Q 44.09375 59.90625 40.109375 62.90625 
Q 36.140625 65.921875 28.71875 65.921875 
Q 24.65625 65.921875 20.015625 65.03125 
Q 15.375 64.15625 9.8125 62.3125 
L 9.8125 71.09375 
Q 15.4375 72.65625 20.34375 73.4375 
Q 25.25 74.21875 29.59375 74.21875 
Q 40.828125 74.21875 47.359375 69.109375 
Q 53.90625 64.015625 53.90625 55.328125 
Q 53.90625 49.265625 50.4375 45.09375 
Q 46.96875 40.921875 40.578125 39.3125 
z
" id="DejaVuSans-33"/>
      </defs>
      <g transform="translate(630.49393 529.277065)rotate(-60)scale(0.1 -0.1)">
       <use xlink:href="#DejaVuSans-32"/>
       <use x="63.623047" xlink:href="#DejaVuSans-30"/>
       <use x="127.246094" xlink:href="#DejaVuSans-31"/>
       <use x="190.869141" xlink:href="#DejaVuSans-33"/>
      </g>
     </g>
    </g>
    <g id="xtick_9">
     <g id="line2d_17">
      <path clip-path="url(#p0c37161966)" d="M 709.681696 496.4375 
L 709.681696 23.0625 
" style="fill:none;stroke:#ffffff;stroke-linecap:square;stroke-width:0.8;"/>
     </g>
     <g id="line2d_18">
      <g>
       <use style="stroke:#000000;stroke-width:0.8;" x="709.681696" xlink:href="#m036549667c" y="496.4375"/>
      </g>
     </g>
     <g id="text_9">
      <!-- 2016 -->
      <defs>
       <path d="M 33.015625 40.375 
Q 26.375 40.375 22.484375 35.828125 
Q 18.609375 31.296875 18.609375 23.390625 
Q 18.609375 15.53125 22.484375 10.953125 
Q 26.375 6.390625 33.015625 6.390625 
Q 39.65625 6.390625 43.53125 10.953125 
Q 47.40625 15.53125 47.40625 23.390625 
Q 47.40625 31.296875 43.53125 35.828125 
Q 39.65625 40.375 33.015625 40.375 
z
M 52.59375 71.296875 
L 52.59375 62.3125 
Q 48.875 64.0625 45.09375 64.984375 
Q 41.3125 65.921875 37.59375 65.921875 
Q 27.828125 65.921875 22.671875 59.328125 
Q 17.53125 52.734375 16.796875 39.40625 
Q 19.671875 43.65625 24.015625 45.921875 
Q 28.375 48.1875 33.59375 48.1875 
Q 44.578125 48.1875 50.953125 41.515625 
Q 57.328125 34.859375 57.328125 23.390625 
Q 57.328125 12.15625 50.6875 5.359375 
Q 44.046875 -1.421875 33.015625 -1.421875 
Q 20.359375 -1.421875 13.671875 8.265625 
Q 6.984375 17.96875 6.984375 36.375 
Q 6.984375 53.65625 15.1875 63.9375 
Q 23.390625 74.21875 37.203125 74.21875 
Q 40.921875 74.21875 44.703125 73.484375 
Q 48.484375 72.75 52.59375 71.296875 
z
" id="DejaVuSans-36"/>
      </defs>
      <g transform="translate(705.708885 529.277065)rotate(-60)scale(0.1 -0.1)">
       <use xlink:href="#DejaVuSans-32"/>
       <use x="63.623047" xlink:href="#DejaVuSans-30"/>
       <use x="127.246094" xlink:href="#DejaVuSans-31"/>
       <use x="190.869141" xlink:href="#DejaVuSans-36"/>
      </g>
     </g>
    </g>
   </g>
   <g id="matplotlib.axis_2">
    <g id="ytick_1">
     <g id="line2d_19">
      <path clip-path="url(#p0c37161966)" d="M 57.81875 418.439191 
L 759.825 418.439191 
" style="fill:none;stroke:#ffffff;stroke-linecap:square;stroke-width:0.8;"/>
     </g>
     <g id="line2d_20">
      <defs>
       <path d="M 0 0 
L -3.5 0 
" id="mb4d6753c89" style="stroke:#000000;stroke-width:0.8;"/>
      </defs>
      <g>
       <use style="stroke:#000000;stroke-width:0.8;" x="57.81875" xlink:href="#mb4d6753c89" y="418.439191"/>
      </g>
     </g>
     <g id="text_10">
      <!-- 5000 -->
      <g transform="translate(25.36875 422.23841)scale(0.1 -0.1)">
       <use xlink:href="#DejaVuSans-35"/>
       <use x="63.623047" xlink:href="#DejaVuSans-30"/>
       <use x="127.246094" xlink:href="#DejaVuSans-30"/>
       <use x="190.869141" xlink:href="#DejaVuSans-30"/>
      </g>
     </g>
    </g>
    <g id="ytick_2">
     <g id="line2d_21">
      <path clip-path="url(#p0c37161966)" d="M 57.81875 339.938478 
L 759.825 339.938478 
" style="fill:none;stroke:#ffffff;stroke-linecap:square;stroke-width:0.8;"/>
     </g>
     <g id="line2d_22">
      <g>
       <use style="stroke:#000000;stroke-width:0.8;" x="57.81875" xlink:href="#mb4d6753c89" y="339.938478"/>
      </g>
     </g>
     <g id="text_11">
      <!-- 10000 -->
      <g transform="translate(19.00625 343.737697)scale(0.1 -0.1)">
       <use xlink:href="#DejaVuSans-31"/>
       <use x="63.623047" xlink:href="#DejaVuSans-30"/>
       <use x="127.246094" xlink:href="#DejaVuSans-30"/>
       <use x="190.869141" xlink:href="#DejaVuSans-30"/>
       <use x="254.492188" xlink:href="#DejaVuSans-30"/>
      </g>
     </g>
    </g>
    <g id="ytick_3">
     <g id="line2d_23">
      <path clip-path="url(#p0c37161966)" d="M 57.81875 261.437765 
L 759.825 261.437765 
" style="fill:none;stroke:#ffffff;stroke-linecap:square;stroke-width:0.8;"/>
     </g>
     <g id="line2d_24">
      <g>
       <use style="stroke:#000000;stroke-width:0.8;" x="57.81875" xlink:href="#mb4d6753c89" y="261.437765"/>
      </g>
     </g>
     <g id="text_12">
      <!-- 15000 -->
      <g transform="translate(19.00625 265.236984)scale(0.1 -0.1)">
       <use xlink:href="#DejaVuSans-31"/>
       <use x="63.623047" xlink:href="#DejaVuSans-35"/>
       <use x="127.246094" xlink:href="#DejaVuSans-30"/>
       <use x="190.869141" xlink:href="#DejaVuSans-30"/>
       <use x="254.492188" xlink:href="#DejaVuSans-30"/>
      </g>
     </g>
    </g>
    <g id="ytick_4">
     <g id="line2d_25">
      <path clip-path="url(#p0c37161966)" d="M 57.81875 182.937052 
L 759.825 182.937052 
" style="fill:none;stroke:#ffffff;stroke-linecap:square;stroke-width:0.8;"/>
     </g>
     <g id="line2d_26">
      <g>
       <use style="stroke:#000000;stroke-width:0.8;" x="57.81875" xlink:href="#mb4d6753c89" y="182.937052"/>
      </g>
     </g>
     <g id="text_13">
      <!-- 20000 -->
      <g transform="translate(19.00625 186.736271)scale(0.1 -0.1)">
       <use xlink:href="#DejaVuSans-32"/>
       <use x="63.623047" xlink:href="#DejaVuSans-30"/>
       <use x="127.246094" xlink:href="#DejaVuSans-30"/>
       <use x="190.869141" xlink:href="#DejaVuSans-30"/>
       <use x="254.492188" xlink:href="#DejaVuSans-30"/>
      </g>
     </g>
    </g>
    <g id="ytick_5">
     <g id="line2d_27">
      <path clip-path="url(#p0c37161966)" d="M 57.81875 104.436339 
L 759.825 104.436339 
" style="fill:none;stroke:#ffffff;stroke-linecap:square;stroke-width:0.8;"/>
     </g>
     <g id="line2d_28">
      <g>
       <use style="stroke:#000000;stroke-width:0.8;" x="57.81875" xlink:href="#mb4d6753c89" y="104.436339"/>
      </g>
     </g>
     <g id="text_14">
      <!-- 25000 -->
      <g transform="translate(19.00625 108.235558)scale(0.1 -0.1)">
       <use xlink:href="#DejaVuSans-32"/>
       <use x="63.623047" xlink:href="#DejaVuSans-35"/>
       <use x="127.246094" xlink:href="#DejaVuSans-30"/>
       <use x="190.869141" xlink:href="#DejaVuSans-30"/>
       <use x="254.492188" xlink:href="#DejaVuSans-30"/>
      </g>
     </g>
    </g>
    <g id="ytick_6">
     <g id="line2d_29">
      <path clip-path="url(#p0c37161966)" d="M 57.81875 25.935626 
L 759.825 25.935626 
" style="fill:none;stroke:#ffffff;stroke-linecap:square;stroke-width:0.8;"/>
     </g>
     <g id="line2d_30">
      <g>
       <use style="stroke:#000000;stroke-width:0.8;" x="57.81875" xlink:href="#mb4d6753c89" y="25.935626"/>
      </g>
     </g>
     <g id="text_15">
      <!-- 30000 -->
      <g transform="translate(19.00625 29.734845)scale(0.1 -0.1)">
       <use xlink:href="#DejaVuSans-33"/>
       <use x="63.623047" xlink:href="#DejaVuSans-30"/>
       <use x="127.246094" xlink:href="#DejaVuSans-30"/>
       <use x="190.869141" xlink:href="#DejaVuSans-30"/>
       <use x="254.492188" xlink:href="#DejaVuSans-30"/>
      </g>
     </g>
    </g>
   </g>
   <g id="line2d_31">
    <path clip-path="url(#p0c37161966)" d="M 133.033705 496.4375 
L 133.033705 23.0625 
" style="fill:none;opacity:0.5;stroke:#000000;stroke-dasharray:5.55,2.4;stroke-dashoffset:0;stroke-width:1.5;"/>
   </g>
   <g id="line2d_32">
    <path clip-path="url(#p0c37161966)" d="M 57.81875 473.405391 
L 82.890402 459.228162 
L 107.962054 453.733112 
L 133.033705 438.174271 
L 158.105357 434.312036 
L 183.177009 427.011469 
L 208.248661 417.685585 
L 233.320312 400.054324 
L 258.391964 389.959133 
L 283.463616 413.650648 
L 308.535268 388.420519 
L 333.60692 390.916841 
L 358.678571 381.355455 
L 383.750223 370.585157 
L 408.821875 359.783459 
L 433.893527 337.410755 
L 458.965179 310.453611 
L 484.03683 297.987697 
L 509.108482 283.747668 
L 534.180134 259.80495 
L 559.251786 297.343991 
L 584.323437 286.934797 
L 609.395089 264.734795 
L 634.466741 250.620367 
L 659.538393 225.876942 
L 684.610045 172.355156 
L 709.681696 108.125873 
L 734.753348 23.0625 
L 759.825 41.855571 
" style="fill:none;stroke:#1f77b4;stroke-linecap:square;stroke-width:1.5;"/>
    <defs>
     <path d="M 0 1.5 
C 0.397805 1.5 0.77937 1.341951 1.06066 1.06066 
C 1.341951 0.77937 1.5 0.397805 1.5 0 
C 1.5 -0.397805 1.341951 -0.77937 1.06066 -1.06066 
C 0.77937 -1.341951 0.397805 -1.5 0 -1.5 
C -0.397805 -1.5 -0.77937 -1.341951 -1.06066 -1.06066 
C -1.341951 -0.77937 -1.5 -0.397805 -1.5 0 
C -1.5 0.397805 -1.341951 0.77937 -1.06066 1.06066 
C -0.77937 1.341951 -0.397805 1.5 0 1.5 
z
" id="m803d62dd58" style="stroke:#1f77b4;"/>
    </defs>
    <g clip-path="url(#p0c37161966)">
     <use style="fill:#1f77b4;stroke:#1f77b4;" x="57.81875" xlink:href="#m803d62dd58" y="473.405391"/>
     <use style="fill:#1f77b4;stroke:#1f77b4;" x="82.890402" xlink:href="#m803d62dd58" y="459.228162"/>
     <use style="fill:#1f77b4;stroke:#1f77b4;" x="107.962054" xlink:href="#m803d62dd58" y="453.733112"/>
     <use style="fill:#1f77b4;stroke:#1f77b4;" x="133.033705" xlink:href="#m803d62dd58" y="438.174271"/>
     <use style="fill:#1f77b4;stroke:#1f77b4;" x="158.105357" xlink:href="#m803d62dd58" y="434.312036"/>
     <use style="fill:#1f77b4;stroke:#1f77b4;" x="183.177009" xlink:href="#m803d62dd58" y="427.011469"/>
     <use style="fill:#1f77b4;stroke:#1f77b4;" x="208.248661" xlink:href="#m803d62dd58" y="417.685585"/>
     <use style="fill:#1f77b4;stroke:#1f77b4;" x="233.320312" xlink:href="#m803d62dd58" y="400.054324"/>
     <use style="fill:#1f77b4;stroke:#1f77b4;" x="258.391964" xlink:href="#m803d62dd58" y="389.959133"/>
     <use style="fill:#1f77b4;stroke:#1f77b4;" x="283.463616" xlink:href="#m803d62dd58" y="413.650648"/>
     <use style="fill:#1f77b4;stroke:#1f77b4;" x="308.535268" xlink:href="#m803d62dd58" y="388.420519"/>
     <use style="fill:#1f77b4;stroke:#1f77b4;" x="333.60692" xlink:href="#m803d62dd58" y="390.916841"/>
     <use style="fill:#1f77b4;stroke:#1f77b4;" x="358.678571" xlink:href="#m803d62dd58" y="381.355455"/>
     <use style="fill:#1f77b4;stroke:#1f77b4;" x="383.750223" xlink:href="#m803d62dd58" y="370.585157"/>
     <use style="fill:#1f77b4;stroke:#1f77b4;" x="408.821875" xlink:href="#m803d62dd58" y="359.783459"/>
     <use style="fill:#1f77b4;stroke:#1f77b4;" x="433.893527" xlink:href="#m803d62dd58" y="337.410755"/>
     <use style="fill:#1f77b4;stroke:#1f77b4;" x="458.965179" xlink:href="#m803d62dd58" y="310.453611"/>
     <use style="fill:#1f77b4;stroke:#1f77b4;" x="484.03683" xlink:href="#m803d62dd58" y="297.987697"/>
     <use style="fill:#1f77b4;stroke:#1f77b4;" x="509.108482" xlink:href="#m803d62dd58" y="283.747668"/>
     <use style="fill:#1f77b4;stroke:#1f77b4;" x="534.180134" xlink:href="#m803d62dd58" y="259.80495"/>
     <use style="fill:#1f77b4;stroke:#1f77b4;" x="559.251786" xlink:href="#m803d62dd58" y="297.343991"/>
     <use style="fill:#1f77b4;stroke:#1f77b4;" x="584.323437" xlink:href="#m803d62dd58" y="286.934797"/>
     <use style="fill:#1f77b4;stroke:#1f77b4;" x="609.395089" xlink:href="#m803d62dd58" y="264.734795"/>
     <use style="fill:#1f77b4;stroke:#1f77b4;" x="634.466741" xlink:href="#m803d62dd58" y="250.620367"/>
     <use style="fill:#1f77b4;stroke:#1f77b4;" x="659.538393" xlink:href="#m803d62dd58" y="225.876942"/>
     <use style="fill:#1f77b4;stroke:#1f77b4;" x="684.610045" xlink:href="#m803d62dd58" y="172.355156"/>
     <use style="fill:#1f77b4;stroke:#1f77b4;" x="709.681696" xlink:href="#m803d62dd58" y="108.125873"/>
     <use style="fill:#1f77b4;stroke:#1f77b4;" x="734.753348" xlink:href="#m803d62dd58" y="23.0625"/>
     <use style="fill:#1f77b4;stroke:#1f77b4;" x="759.825" xlink:href="#m803d62dd58" y="41.855571"/>
    </g>
   </g>
   <g id="line2d_33">
    <path clip-path="url(#p0c37161966)" d="M 57.81875 495.935095 
L 82.890402 491.444855 
L 107.962054 488.194925 
L 133.033705 487.504119 
L 158.105357 485.745703 
L 183.177009 485.635802 
L 208.248661 425.881059 
L 233.320312 265.017398 
L 258.391964 180.330829 
L 283.463616 177.473403 
L 308.535268 152.902679 
L 333.60692 133.795606 
L 358.678571 74.951471 
L 383.750223 183.847661 
L 408.821875 451.896195 
L 433.893527 451.142589 
L 458.965179 446.793649 
L 484.03683 438.425473 
L 509.108482 429.460692 
L 534.180134 418.219389 
L 559.251786 405.580775 
L 584.323437 394.967478 
L 609.395089 382.030561 
L 634.466741 374.965497 
L 659.538393 358.637348 
L 684.610045 311.364219 
L 709.681696 280.968743 
L 734.753348 267.545121 
L 759.825 273.244273 
" style="fill:none;stroke:#ff7f0e;stroke-linecap:square;stroke-width:1.5;"/>
    <defs>
     <path d="M 0 1.5 
C 0.397805 1.5 0.77937 1.341951 1.06066 1.06066 
C 1.341951 0.77937 1.5 0.397805 1.5 0 
C 1.5 -0.397805 1.341951 -0.77937 1.06066 -1.06066 
C 0.77937 -1.341951 0.397805 -1.5 0 -1.5 
C -0.397805 -1.5 -0.77937 -1.341951 -1.06066 -1.06066 
C -1.341951 -0.77937 -1.5 -0.397805 -1.5 0 
C -1.5 0.397805 -1.341951 0.77937 -1.06066 1.06066 
C -0.77937 1.341951 -0.397805 1.5 0 1.5 
z
" id="m66bf5de544" style="stroke:#ff7f0e;"/>
    </defs>
    <g clip-path="url(#p0c37161966)">
     <use style="fill:#ff7f0e;stroke:#ff7f0e;" x="57.81875" xlink:href="#m66bf5de544" y="495.935095"/>
     <use style="fill:#ff7f0e;stroke:#ff7f0e;" x="82.890402" xlink:href="#m66bf5de544" y="491.444855"/>
     <use style="fill:#ff7f0e;stroke:#ff7f0e;" x="107.962054" xlink:href="#m66bf5de544" y="488.194925"/>
     <use style="fill:#ff7f0e;stroke:#ff7f0e;" x="133.033705" xlink:href="#m66bf5de544" y="487.504119"/>
     <use style="fill:#ff7f0e;stroke:#ff7f0e;" x="158.105357" xlink:href="#m66bf5de544" y="485.745703"/>
     <use style="fill:#ff7f0e;stroke:#ff7f0e;" x="183.177009" xlink:href="#m66bf5de544" y="485.635802"/>
     <use style="fill:#ff7f0e;stroke:#ff7f0e;" x="208.248661" xlink:href="#m66bf5de544" y="425.881059"/>
     <use style="fill:#ff7f0e;stroke:#ff7f0e;" x="233.320312" xlink:href="#m66bf5de544" y="265.017398"/>
     <use style="fill:#ff7f0e;stroke:#ff7f0e;" x="258.391964" xlink:href="#m66bf5de544" y="180.330829"/>
     <use style="fill:#ff7f0e;stroke:#ff7f0e;" x="283.463616" xlink:href="#m66bf5de544" y="177.473403"/>
     <use style="fill:#ff7f0e;stroke:#ff7f0e;" x="308.535268" xlink:href="#m66bf5de544" y="152.902679"/>
     <use style="fill:#ff7f0e;stroke:#ff7f0e;" x="333.60692" xlink:href="#m66bf5de544" y="133.795606"/>
     <use style="fill:#ff7f0e;stroke:#ff7f0e;" x="358.678571" xlink:href="#m66bf5de544" y="74.951471"/>
     <use style="fill:#ff7f0e;stroke:#ff7f0e;" x="383.750223" xlink:href="#m66bf5de544" y="183.847661"/>
     <use style="fill:#ff7f0e;stroke:#ff7f0e;" x="408.821875" xlink:href="#m66bf5de544" y="451.896195"/>
     <use style="fill:#ff7f0e;stroke:#ff7f0e;" x="433.893527" xlink:href="#m66bf5de544" y="451.142589"/>
     <use style="fill:#ff7f0e;stroke:#ff7f0e;" x="458.965179" xlink:href="#m66bf5de544" y="446.793649"/>
     <use style="fill:#ff7f0e;stroke:#ff7f0e;" x="484.03683" xlink:href="#m66bf5de544" y="438.425473"/>
     <use style="fill:#ff7f0e;stroke:#ff7f0e;" x="509.108482" xlink:href="#m66bf5de544" y="429.460692"/>
     <use style="fill:#ff7f0e;stroke:#ff7f0e;" x="534.180134" xlink:href="#m66bf5de544" y="418.219389"/>
     <use style="fill:#ff7f0e;stroke:#ff7f0e;" x="559.251786" xlink:href="#m66bf5de544" y="405.580775"/>
     <use style="fill:#ff7f0e;stroke:#ff7f0e;" x="584.323437" xlink:href="#m66bf5de544" y="394.967478"/>
     <use style="fill:#ff7f0e;stroke:#ff7f0e;" x="609.395089" xlink:href="#m66bf5de544" y="382.030561"/>
     <use style="fill:#ff7f0e;stroke:#ff7f0e;" x="634.466741" xlink:href="#m66bf5de544" y="374.965497"/>
     <use style="fill:#ff7f0e;stroke:#ff7f0e;" x="659.538393" xlink:href="#m66bf5de544" y="358.637348"/>
     <use style="fill:#ff7f0e;stroke:#ff7f0e;" x="684.610045" xlink:href="#m66bf5de544" y="311.364219"/>
     <use style="fill:#ff7f0e;stroke:#ff7f0e;" x="709.681696" xlink:href="#m66bf5de544" y="280.968743"/>
     <use style="fill:#ff7f0e;stroke:#ff7f0e;" x="734.753348" xlink:href="#m66bf5de544" y="267.545121"/>
     <use style="fill:#ff7f0e;stroke:#ff7f0e;" x="759.825" xlink:href="#m66bf5de544" y="273.244273"/>
    </g>
   </g>
   <g id="line2d_34">
    <path clip-path="url(#p0c37161966)" d="M 57.81875 477.848531 
L 82.890402 466.167625 
L 107.962054 468.177243 
L 133.033705 472.902986 
L 158.105357 471.709775 
L 183.177009 474.237498 
L 208.248661 469.98276 
L 233.320312 468.444146 
L 258.391964 469.370454 
L 283.463616 472.793085 
L 308.535268 470.296763 
L 333.60692 473.075688 
L 358.678571 472.117979 
L 383.750223 468.601147 
L 408.821875 465.414018 
L 433.893527 462.399591 
L 458.965179 458.317554 
L 484.03683 451.974696 
L 509.108482 445.85164 
L 534.180134 438.174271 
L 559.251786 442.601711 
L 584.323437 434.107934 
L 609.395089 429.711894 
L 634.466741 423.997042 
L 659.538393 419.318399 
L 684.610045 397.950505 
L 709.681696 388.247817 
L 734.753348 383.145271 
L 759.825 399.394918 
" style="fill:none;stroke:#2ca02c;stroke-linecap:square;stroke-width:1.5;"/>
    <defs>
     <path d="M 0 1.5 
C 0.397805 1.5 0.77937 1.341951 1.06066 1.06066 
C 1.341951 0.77937 1.5 0.397805 1.5 0 
C 1.5 -0.397805 1.341951 -0.77937 1.06066 -1.06066 
C 0.77937 -1.341951 0.397805 -1.5 0 -1.5 
C -0.397805 -1.5 -0.77937 -1.341951 -1.06066 -1.06066 
C -1.341951 -0.77937 -1.5 -0.397805 -1.5 0 
C -1.5 0.397805 -1.341951 0.77937 -1.06066 1.06066 
C -0.77937 1.341951 -0.397805 1.5 0 1.5 
z
" id="m1cf8164087" style="stroke:#2ca02c;"/>
    </defs>
    <g clip-path="url(#p0c37161966)">
     <use style="fill:#2ca02c;stroke:#2ca02c;" x="57.81875" xlink:href="#m1cf8164087" y="477.848531"/>
     <use style="fill:#2ca02c;stroke:#2ca02c;" x="82.890402" xlink:href="#m1cf8164087" y="466.167625"/>
     <use style="fill:#2ca02c;stroke:#2ca02c;" x="107.962054" xlink:href="#m1cf8164087" y="468.177243"/>
     <use style="fill:#2ca02c;stroke:#2ca02c;" x="133.033705" xlink:href="#m1cf8164087" y="472.902986"/>
     <use style="fill:#2ca02c;stroke:#2ca02c;" x="158.105357" xlink:href="#m1cf8164087" y="471.709775"/>
     <use style="fill:#2ca02c;stroke:#2ca02c;" x="183.177009" xlink:href="#m1cf8164087" y="474.237498"/>
     <use style="fill:#2ca02c;stroke:#2ca02c;" x="208.248661" xlink:href="#m1cf8164087" y="469.98276"/>
     <use style="fill:#2ca02c;stroke:#2ca02c;" x="233.320312" xlink:href="#m1cf8164087" y="468.444146"/>
     <use style="fill:#2ca02c;stroke:#2ca02c;" x="258.391964" xlink:href="#m1cf8164087" y="469.370454"/>
     <use style="fill:#2ca02c;stroke:#2ca02c;" x="283.463616" xlink:href="#m1cf8164087" y="472.793085"/>
     <use style="fill:#2ca02c;stroke:#2ca02c;" x="308.535268" xlink:href="#m1cf8164087" y="470.296763"/>
     <use style="fill:#2ca02c;stroke:#2ca02c;" x="333.60692" xlink:href="#m1cf8164087" y="473.075688"/>
     <use style="fill:#2ca02c;stroke:#2ca02c;" x="358.678571" xlink:href="#m1cf8164087" y="472.117979"/>
     <use style="fill:#2ca02c;stroke:#2ca02c;" x="383.750223" xlink:href="#m1cf8164087" y="468.601147"/>
     <use style="fill:#2ca02c;stroke:#2ca02c;" x="408.821875" xlink:href="#m1cf8164087" y="465.414018"/>
     <use style="fill:#2ca02c;stroke:#2ca02c;" x="433.893527" xlink:href="#m1cf8164087" y="462.399591"/>
     <use style="fill:#2ca02c;stroke:#2ca02c;" x="458.965179" xlink:href="#m1cf8164087" y="458.317554"/>
     <use style="fill:#2ca02c;stroke:#2ca02c;" x="484.03683" xlink:href="#m1cf8164087" y="451.974696"/>
     <use style="fill:#2ca02c;stroke:#2ca02c;" x="509.108482" xlink:href="#m1cf8164087" y="445.85164"/>
     <use style="fill:#2ca02c;stroke:#2ca02c;" x="534.180134" xlink:href="#m1cf8164087" y="438.174271"/>
     <use style="fill:#2ca02c;stroke:#2ca02c;" x="559.251786" xlink:href="#m1cf8164087" y="442.601711"/>
     <use style="fill:#2ca02c;stroke:#2ca02c;" x="584.323437" xlink:href="#m1cf8164087" y="434.107934"/>
     <use style="fill:#2ca02c;stroke:#2ca02c;" x="609.395089" xlink:href="#m1cf8164087" y="429.711894"/>
     <use style="fill:#2ca02c;stroke:#2ca02c;" x="634.466741" xlink:href="#m1cf8164087" y="423.997042"/>
     <use style="fill:#2ca02c;stroke:#2ca02c;" x="659.538393" xlink:href="#m1cf8164087" y="419.318399"/>
     <use style="fill:#2ca02c;stroke:#2ca02c;" x="684.610045" xlink:href="#m1cf8164087" y="397.950505"/>
     <use style="fill:#2ca02c;stroke:#2ca02c;" x="709.681696" xlink:href="#m1cf8164087" y="388.247817"/>
     <use style="fill:#2ca02c;stroke:#2ca02c;" x="734.753348" xlink:href="#m1cf8164087" y="383.145271"/>
     <use style="fill:#2ca02c;stroke:#2ca02c;" x="759.825" xlink:href="#m1cf8164087" y="399.394918"/>
    </g>
   </g>
   <g id="line2d_35">
    <path clip-path="url(#p0c37161966)" d="M 57.81875 496.4375 
L 82.890402 495.32279 
L 107.962054 494.631984 
L 133.033705 494.349381 
L 158.105357 493.956877 
L 183.177009 493.250371 
L 208.248661 493.10907 
L 233.320312 492.481064 
L 258.391964 492.119961 
L 283.463616 492.07286 
L 308.535268 491.193652 
L 333.60692 491.209353 
L 358.678571 489.215434 
L 383.750223 486.389409 
L 408.821875 482.684175 
L 433.893527 478.649238 
L 458.965179 475.258008 
L 484.03683 480.564656 
L 509.108482 475.55631 
L 534.180134 471.945278 
L 559.251786 467.360836 
L 584.323437 462.179789 
L 609.395089 459.746267 
L 634.466741 450.781485 
L 659.538393 441.4085 
L 684.610045 420.841313 
L 709.681696 400.431128 
L 734.753348 371.432964 
L 759.825 309.197599 
" style="fill:none;stroke:#d62728;stroke-linecap:square;stroke-width:1.5;"/>
    <defs>
     <path d="M 0 1.5 
C 0.397805 1.5 0.77937 1.341951 1.06066 1.06066 
C 1.341951 0.77937 1.5 0.397805 1.5 0 
C 1.5 -0.397805 1.341951 -0.77937 1.06066 -1.06066 
C 0.77937 -1.341951 0.397805 -1.5 0 -1.5 
C -0.397805 -1.5 -0.77937 -1.341951 -1.06066 -1.06066 
C -1.341951 -0.77937 -1.5 -0.397805 -1.5 0 
C -1.5 0.397805 -1.341951 0.77937 -1.06066 1.06066 
C -0.77937 1.341951 -0.397805 1.5 0 1.5 
z
" id="mef67f005c0" style="stroke:#d62728;"/>
    </defs>
    <g clip-path="url(#p0c37161966)">
     <use style="fill:#d62728;stroke:#d62728;" x="57.81875" xlink:href="#mef67f005c0" y="496.4375"/>
     <use style="fill:#d62728;stroke:#d62728;" x="82.890402" xlink:href="#mef67f005c0" y="495.32279"/>
     <use style="fill:#d62728;stroke:#d62728;" x="107.962054" xlink:href="#mef67f005c0" y="494.631984"/>
     <use style="fill:#d62728;stroke:#d62728;" x="133.033705" xlink:href="#mef67f005c0" y="494.349381"/>
     <use style="fill:#d62728;stroke:#d62728;" x="158.105357" xlink:href="#mef67f005c0" y="493.956877"/>
     <use style="fill:#d62728;stroke:#d62728;" x="183.177009" xlink:href="#mef67f005c0" y="493.250371"/>
     <use style="fill:#d62728;stroke:#d62728;" x="208.248661" xlink:href="#mef67f005c0" y="493.10907"/>
     <use style="fill:#d62728;stroke:#d62728;" x="233.320312" xlink:href="#mef67f005c0" y="492.481064"/>
     <use style="fill:#d62728;stroke:#d62728;" x="258.391964" xlink:href="#mef67f005c0" y="492.119961"/>
     <use style="fill:#d62728;stroke:#d62728;" x="283.463616" xlink:href="#mef67f005c0" y="492.07286"/>
     <use style="fill:#d62728;stroke:#d62728;" x="308.535268" xlink:href="#mef67f005c0" y="491.193652"/>
     <use style="fill:#d62728;stroke:#d62728;" x="333.60692" xlink:href="#mef67f005c0" y="491.209353"/>
     <use style="fill:#d62728;stroke:#d62728;" x="358.678571" xlink:href="#mef67f005c0" y="489.215434"/>
     <use style="fill:#d62728;stroke:#d62728;" x="383.750223" xlink:href="#mef67f005c0" y="486.389409"/>
     <use style="fill:#d62728;stroke:#d62728;" x="408.821875" xlink:href="#mef67f005c0" y="482.684175"/>
     <use style="fill:#d62728;stroke:#d62728;" x="433.893527" xlink:href="#mef67f005c0" y="478.649238"/>
     <use style="fill:#d62728;stroke:#d62728;" x="458.965179" xlink:href="#mef67f005c0" y="475.258008"/>
     <use style="fill:#d62728;stroke:#d62728;" x="484.03683" xlink:href="#mef67f005c0" y="480.564656"/>
     <use style="fill:#d62728;stroke:#d62728;" x="509.108482" xlink:href="#mef67f005c0" y="475.55631"/>
     <use style="fill:#d62728;stroke:#d62728;" x="534.180134" xlink:href="#mef67f005c0" y="471.945278"/>
     <use style="fill:#d62728;stroke:#d62728;" x="559.251786" xlink:href="#mef67f005c0" y="467.360836"/>
     <use style="fill:#d62728;stroke:#d62728;" x="584.323437" xlink:href="#mef67f005c0" y="462.179789"/>
     <use style="fill:#d62728;stroke:#d62728;" x="609.395089" xlink:href="#mef67f005c0" y="459.746267"/>
     <use style="fill:#d62728;stroke:#d62728;" x="634.466741" xlink:href="#mef67f005c0" y="450.781485"/>
     <use style="fill:#d62728;stroke:#d62728;" x="659.538393" xlink:href="#mef67f005c0" y="441.4085"/>
     <use style="fill:#d62728;stroke:#d62728;" x="684.610045" xlink:href="#mef67f005c0" y="420.841313"/>
     <use style="fill:#d62728;stroke:#d62728;" x="709.681696" xlink:href="#mef67f005c0" y="400.431128"/>
     <use style="fill:#d62728;stroke:#d62728;" x="734.753348" xlink:href="#mef67f005c0" y="371.432964"/>
     <use style="fill:#d62728;stroke:#d62728;" x="759.825" xlink:href="#mef67f005c0" y="309.197599"/>
    </g>
   </g>
   <g id="line2d_36">
    <path clip-path="url(#p0c37161966)" d="M 57.81875 494.741885 
L 82.890402 491.162252 
L 107.962054 490.298744 
L 133.033705 491.429155 
L 158.105357 489.81204 
L 183.177009 490.581347 
L 208.248661 491.225053 
L 233.320312 491.020951 
L 258.391964 491.083751 
L 283.463616 491.711757 
L 308.535268 491.900159 
L 333.60692 491.334954 
L 358.678571 491.287853 
L 383.750223 490.518546 
L 408.821875 490.424345 
L 433.893527 489.670739 
L 458.965179 488.556028 
L 484.03683 489.419536 
L 509.108482 488.948532 
L 534.180134 487.331417 
L 559.251786 487.174416 
L 584.323437 486.373709 
L 609.395089 485.4003 
L 634.466741 484.630993 
L 659.538393 482.652775 
L 684.610045 478.382336 
L 709.681696 474.4573 
L 734.753348 468.192943 
L 759.825 452.869604 
" style="fill:none;stroke:#9467bd;stroke-linecap:square;stroke-width:1.5;"/>
    <defs>
     <path d="M 0 1.5 
C 0.397805 1.5 0.77937 1.341951 1.06066 1.06066 
C 1.341951 0.77937 1.5 0.397805 1.5 0 
C 1.5 -0.397805 1.341951 -0.77937 1.06066 -1.06066 
C 0.77937 -1.341951 0.397805 -1.5 0 -1.5 
C -0.397805 -1.5 -0.77937 -1.341951 -1.06066 -1.06066 
C -1.341951 -0.77937 -1.5 -0.397805 -1.5 0 
C -1.5 0.397805 -1.341951 0.77937 -1.06066 1.06066 
C -0.77937 1.341951 -0.397805 1.5 0 1.5 
z
" id="m7e22d8016b" style="stroke:#9467bd;"/>
    </defs>
    <g clip-path="url(#p0c37161966)">
     <use style="fill:#9467bd;stroke:#9467bd;" x="57.81875" xlink:href="#m7e22d8016b" y="494.741885"/>
     <use style="fill:#9467bd;stroke:#9467bd;" x="82.890402" xlink:href="#m7e22d8016b" y="491.162252"/>
     <use style="fill:#9467bd;stroke:#9467bd;" x="107.962054" xlink:href="#m7e22d8016b" y="490.298744"/>
     <use style="fill:#9467bd;stroke:#9467bd;" x="133.033705" xlink:href="#m7e22d8016b" y="491.429155"/>
     <use style="fill:#9467bd;stroke:#9467bd;" x="158.105357" xlink:href="#m7e22d8016b" y="489.81204"/>
     <use style="fill:#9467bd;stroke:#9467bd;" x="183.177009" xlink:href="#m7e22d8016b" y="490.581347"/>
     <use style="fill:#9467bd;stroke:#9467bd;" x="208.248661" xlink:href="#m7e22d8016b" y="491.225053"/>
     <use style="fill:#9467bd;stroke:#9467bd;" x="233.320312" xlink:href="#m7e22d8016b" y="491.020951"/>
     <use style="fill:#9467bd;stroke:#9467bd;" x="258.391964" xlink:href="#m7e22d8016b" y="491.083751"/>
     <use style="fill:#9467bd;stroke:#9467bd;" x="283.463616" xlink:href="#m7e22d8016b" y="491.711757"/>
     <use style="fill:#9467bd;stroke:#9467bd;" x="308.535268" xlink:href="#m7e22d8016b" y="491.900159"/>
     <use style="fill:#9467bd;stroke:#9467bd;" x="333.60692" xlink:href="#m7e22d8016b" y="491.334954"/>
     <use style="fill:#9467bd;stroke:#9467bd;" x="358.678571" xlink:href="#m7e22d8016b" y="491.287853"/>
     <use style="fill:#9467bd;stroke:#9467bd;" x="383.750223" xlink:href="#m7e22d8016b" y="490.518546"/>
     <use style="fill:#9467bd;stroke:#9467bd;" x="408.821875" xlink:href="#m7e22d8016b" y="490.424345"/>
     <use style="fill:#9467bd;stroke:#9467bd;" x="433.893527" xlink:href="#m7e22d8016b" y="489.670739"/>
     <use style="fill:#9467bd;stroke:#9467bd;" x="458.965179" xlink:href="#m7e22d8016b" y="488.556028"/>
     <use style="fill:#9467bd;stroke:#9467bd;" x="484.03683" xlink:href="#m7e22d8016b" y="489.419536"/>
     <use style="fill:#9467bd;stroke:#9467bd;" x="509.108482" xlink:href="#m7e22d8016b" y="488.948532"/>
     <use style="fill:#9467bd;stroke:#9467bd;" x="534.180134" xlink:href="#m7e22d8016b" y="487.331417"/>
     <use style="fill:#9467bd;stroke:#9467bd;" x="559.251786" xlink:href="#m7e22d8016b" y="487.174416"/>
     <use style="fill:#9467bd;stroke:#9467bd;" x="584.323437" xlink:href="#m7e22d8016b" y="486.373709"/>
     <use style="fill:#9467bd;stroke:#9467bd;" x="609.395089" xlink:href="#m7e22d8016b" y="485.4003"/>
     <use style="fill:#9467bd;stroke:#9467bd;" x="634.466741" xlink:href="#m7e22d8016b" y="484.630993"/>
     <use style="fill:#9467bd;stroke:#9467bd;" x="659.538393" xlink:href="#m7e22d8016b" y="482.652775"/>
     <use style="fill:#9467bd;stroke:#9467bd;" x="684.610045" xlink:href="#m7e22d8016b" y="478.382336"/>
     <use style="fill:#9467bd;stroke:#9467bd;" x="709.681696" xlink:href="#m7e22d8016b" y="474.4573"/>
     <use style="fill:#9467bd;stroke:#9467bd;" x="734.753348" xlink:href="#m7e22d8016b" y="468.192943"/>
     <use style="fill:#9467bd;stroke:#9467bd;" x="759.825" xlink:href="#m7e22d8016b" y="452.869604"/>
    </g>
   </g>
   <g id="patch_3">
    <path d="M 57.81875 496.4375 
L 57.81875 23.0625 
" style="fill:none;stroke:#000000;stroke-linecap:square;stroke-linejoin:miter;stroke-width:0.8;"/>
   </g>
   <g id="patch_4">
    <path d="M 759.825 496.4375 
L 759.825 23.0625 
" style="fill:none;stroke:#000000;stroke-linecap:square;stroke-linejoin:miter;stroke-width:0.8;"/>
   </g>
   <g id="patch_5">
    <path d="M 57.81875 496.4375 
L 759.825 496.4375 
" style="fill:none;stroke:#000000;stroke-linecap:square;stroke-linejoin:miter;stroke-width:0.8;"/>
   </g>
   <g id="patch_6">
    <path d="M 57.81875 23.0625 
L 759.825 23.0625 
" style="fill:none;stroke:#000000;stroke-linecap:square;stroke-linejoin:miter;stroke-width:0.8;"/>
   </g>
   <g id="text_16">
    <!-- Bust -->
    <defs>
     <path d="M 19.671875 34.8125 
L 19.671875 8.109375 
L 35.5 8.109375 
Q 43.453125 8.109375 47.28125 11.40625 
Q 51.125 14.703125 51.125 21.484375 
Q 51.125 28.328125 47.28125 31.5625 
Q 43.453125 34.8125 35.5 34.8125 
z
M 19.671875 64.796875 
L 19.671875 42.828125 
L 34.28125 42.828125 
Q 41.5 42.828125 45.03125 45.53125 
Q 48.578125 48.25 48.578125 53.8125 
Q 48.578125 59.328125 45.03125 62.0625 
Q 41.5 64.796875 34.28125 64.796875 
z
M 9.8125 72.90625 
L 35.015625 72.90625 
Q 46.296875 72.90625 52.390625 68.21875 
Q 58.5 63.53125 58.5 54.890625 
Q 58.5 48.1875 55.375 44.234375 
Q 52.25 40.28125 46.1875 39.3125 
Q 53.46875 37.75 57.5 32.78125 
Q 61.53125 27.828125 61.53125 20.40625 
Q 61.53125 10.640625 54.890625 5.3125 
Q 48.25 0 35.984375 0 
L 9.8125 0 
z
" id="DejaVuSans-42"/>
     <path d="M 8.5 21.578125 
L 8.5 54.6875 
L 17.484375 54.6875 
L 17.484375 21.921875 
Q 17.484375 14.15625 20.5 10.265625 
Q 23.53125 6.390625 29.59375 6.390625 
Q 36.859375 6.390625 41.078125 11.03125 
Q 45.3125 15.671875 45.3125 23.6875 
L 45.3125 54.6875 
L 54.296875 54.6875 
L 54.296875 0 
L 45.3125 0 
L 45.3125 8.40625 
Q 42.046875 3.421875 37.71875 1 
Q 33.40625 -1.421875 27.6875 -1.421875 
Q 18.265625 -1.421875 13.375 4.4375 
Q 8.5 10.296875 8.5 21.578125 
z
M 31.109375 56 
z
" id="DejaVuSans-75"/>
     <path d="M 44.28125 53.078125 
L 44.28125 44.578125 
Q 40.484375 46.53125 36.375 47.5 
Q 32.28125 48.484375 27.875 48.484375 
Q 21.1875 48.484375 17.84375 46.4375 
Q 14.5 44.390625 14.5 40.28125 
Q 14.5 37.15625 16.890625 35.375 
Q 19.28125 33.59375 26.515625 31.984375 
L 29.59375 31.296875 
Q 39.15625 29.25 43.1875 25.515625 
Q 47.21875 21.78125 47.21875 15.09375 
Q 47.21875 7.46875 41.1875 3.015625 
Q 35.15625 -1.421875 24.609375 -1.421875 
Q 20.21875 -1.421875 15.453125 -0.5625 
Q 10.6875 0.296875 5.421875 2 
L 5.421875 11.28125 
Q 10.40625 8.6875 15.234375 7.390625 
Q 20.0625 6.109375 24.8125 6.109375 
Q 31.15625 6.109375 34.5625 8.28125 
Q 37.984375 10.453125 37.984375 14.40625 
Q 37.984375 18.0625 35.515625 20.015625 
Q 33.0625 21.96875 24.703125 23.78125 
L 21.578125 24.515625 
Q 13.234375 26.265625 9.515625 29.90625 
Q 5.8125 33.546875 5.8125 39.890625 
Q 5.8125 47.609375 11.28125 51.796875 
Q 16.75 56 26.8125 56 
Q 31.78125 56 36.171875 55.265625 
Q 40.578125 54.546875 44.28125 53.078125 
z
" id="DejaVuSans-73"/>
     <path d="M 18.3125 70.21875 
L 18.3125 54.6875 
L 36.8125 54.6875 
L 36.8125 47.703125 
L 18.3125 47.703125 
L 18.3125 18.015625 
Q 18.3125 11.328125 20.140625 9.421875 
Q 21.96875 7.515625 27.59375 7.515625 
L 36.8125 7.515625 
L 36.8125 0 
L 27.59375 0 
Q 17.1875 0 13.234375 3.875 
Q 9.28125 7.765625 9.28125 18.015625 
L 9.28125 47.703125 
L 2.6875 47.703125 
L 2.6875 54.6875 
L 9.28125 54.6875 
L 9.28125 70.21875 
z
" id="DejaVuSans-74"/>
    </defs>
    <g transform="translate(89.483216 459.397521)rotate(-45)scale(0.1 -0.1)">
     <use xlink:href="#DejaVuSans-42"/>
     <use x="68.603516" xlink:href="#DejaVuSans-75"/>
     <use x="131.982422" xlink:href="#DejaVuSans-73"/>
     <use x="184.082031" xlink:href="#DejaVuSans-74"/>
    </g>
   </g>
   <g id="legend_1">
    <g id="patch_7">
     <path d="M 64.81875 104.453125 
L 199.314063 104.453125 
Q 201.314063 104.453125 201.314063 102.453125 
L 201.314063 30.0625 
Q 201.314063 28.0625 199.314063 28.0625 
L 64.81875 28.0625 
Q 62.81875 28.0625 62.81875 30.0625 
L 62.81875 102.453125 
Q 62.81875 104.453125 64.81875 104.453125 
z
" style="fill:#ffffff;opacity:0.33;stroke:#cccccc;stroke-linejoin:miter;"/>
    </g>
    <g id="line2d_37">
     <path d="M 66.81875 36.160937 
L 86.81875 36.160937 
" style="fill:none;stroke:#1f77b4;stroke-linecap:square;stroke-width:1.5;"/>
    </g>
    <g id="line2d_38">
     <g>
      <use style="fill:#1f77b4;stroke:#1f77b4;" x="76.81875" xlink:href="#m803d62dd58" y="36.160937"/>
     </g>
    </g>
    <g id="text_17">
     <!-- Neural Network -->
     <defs>
      <path d="M 9.8125 72.90625 
L 23.09375 72.90625 
L 55.421875 11.921875 
L 55.421875 72.90625 
L 64.984375 72.90625 
L 64.984375 0 
L 51.703125 0 
L 19.390625 60.984375 
L 19.390625 0 
L 9.8125 0 
z
" id="DejaVuSans-4e"/>
      <path d="M 56.203125 29.59375 
L 56.203125 25.203125 
L 14.890625 25.203125 
Q 15.484375 15.921875 20.484375 11.0625 
Q 25.484375 6.203125 34.421875 6.203125 
Q 39.59375 6.203125 44.453125 7.46875 
Q 49.3125 8.734375 54.109375 11.28125 
L 54.109375 2.78125 
Q 49.265625 0.734375 44.1875 -0.34375 
Q 39.109375 -1.421875 33.890625 -1.421875 
Q 20.796875 -1.421875 13.15625 6.1875 
Q 5.515625 13.8125 5.515625 26.8125 
Q 5.515625 40.234375 12.765625 48.109375 
Q 20.015625 56 32.328125 56 
Q 43.359375 56 49.78125 48.890625 
Q 56.203125 41.796875 56.203125 29.59375 
z
M 47.21875 32.234375 
Q 47.125 39.59375 43.09375 43.984375 
Q 39.0625 48.390625 32.421875 48.390625 
Q 24.90625 48.390625 20.390625 44.140625 
Q 15.875 39.890625 15.1875 32.171875 
z
" id="DejaVuSans-65"/>
      <path d="M 41.109375 46.296875 
Q 39.59375 47.171875 37.8125 47.578125 
Q 36.03125 48 33.890625 48 
Q 26.265625 48 22.1875 43.046875 
Q 18.109375 38.09375 18.109375 28.8125 
L 18.109375 0 
L 9.078125 0 
L 9.078125 54.6875 
L 18.109375 54.6875 
L 18.109375 46.1875 
Q 20.953125 51.171875 25.484375 53.578125 
Q 30.03125 56 36.53125 56 
Q 37.453125 56 38.578125 55.875 
Q 39.703125 55.765625 41.0625 55.515625 
z
" id="DejaVuSans-72"/>
      <path d="M 34.28125 27.484375 
Q 23.390625 27.484375 19.1875 25 
Q 14.984375 22.515625 14.984375 16.5 
Q 14.984375 11.71875 18.140625 8.90625 
Q 21.296875 6.109375 26.703125 6.109375 
Q 34.1875 6.109375 38.703125 11.40625 
Q 43.21875 16.703125 43.21875 25.484375 
L 43.21875 27.484375 
z
M 52.203125 31.203125 
L 52.203125 0 
L 43.21875 0 
L 43.21875 8.296875 
Q 40.140625 3.328125 35.546875 0.953125 
Q 30.953125 -1.421875 24.3125 -1.421875 
Q 15.921875 -1.421875 10.953125 3.296875 
Q 6 8.015625 6 15.921875 
Q 6 25.140625 12.171875 29.828125 
Q 18.359375 34.515625 30.609375 34.515625 
L 43.21875 34.515625 
L 43.21875 35.40625 
Q 43.21875 41.609375 39.140625 45 
Q 35.0625 48.390625 27.6875 48.390625 
Q 23 48.390625 18.546875 47.265625 
Q 14.109375 46.140625 10.015625 43.890625 
L 10.015625 52.203125 
Q 14.9375 54.109375 19.578125 55.046875 
Q 24.21875 56 28.609375 56 
Q 40.484375 56 46.34375 49.84375 
Q 52.203125 43.703125 52.203125 31.203125 
z
" id="DejaVuSans-61"/>
      <path d="M 9.421875 75.984375 
L 18.40625 75.984375 
L 18.40625 0 
L 9.421875 0 
z
" id="DejaVuSans-6c"/>
      <path id="DejaVuSans-20"/>
      <path d="M 4.203125 54.6875 
L 13.1875 54.6875 
L 24.421875 12.015625 
L 35.59375 54.6875 
L 46.1875 54.6875 
L 57.421875 12.015625 
L 68.609375 54.6875 
L 77.59375 54.6875 
L 63.28125 0 
L 52.6875 0 
L 40.921875 44.828125 
L 29.109375 0 
L 18.5 0 
z
" id="DejaVuSans-77"/>
      <path d="M 30.609375 48.390625 
Q 23.390625 48.390625 19.1875 42.75 
Q 14.984375 37.109375 14.984375 27.296875 
Q 14.984375 17.484375 19.15625 11.84375 
Q 23.34375 6.203125 30.609375 6.203125 
Q 37.796875 6.203125 41.984375 11.859375 
Q 46.1875 17.53125 46.1875 27.296875 
Q 46.1875 37.015625 41.984375 42.703125 
Q 37.796875 48.390625 30.609375 48.390625 
z
M 30.609375 56 
Q 42.328125 56 49.015625 48.375 
Q 55.71875 40.765625 55.71875 27.296875 
Q 55.71875 13.875 49.015625 6.21875 
Q 42.328125 -1.421875 30.609375 -1.421875 
Q 18.84375 -1.421875 12.171875 6.21875 
Q 5.515625 13.875 5.515625 27.296875 
Q 5.515625 40.765625 12.171875 48.375 
Q 18.84375 56 30.609375 56 
z
" id="DejaVuSans-6f"/>
      <path d="M 9.078125 75.984375 
L 18.109375 75.984375 
L 18.109375 31.109375 
L 44.921875 54.6875 
L 56.390625 54.6875 
L 27.390625 29.109375 
L 57.625 0 
L 45.90625 0 
L 18.109375 26.703125 
L 18.109375 0 
L 9.078125 0 
z
" id="DejaVuSans-6b"/>
     </defs>
     <g transform="translate(94.81875 39.660937)scale(0.1 -0.1)">
      <use xlink:href="#DejaVuSans-4e"/>
      <use x="74.804688" xlink:href="#DejaVuSans-65"/>
      <use x="136.328125" xlink:href="#DejaVuSans-75"/>
      <use x="199.707031" xlink:href="#DejaVuSans-72"/>
      <use x="240.820312" xlink:href="#DejaVuSans-61"/>
      <use x="302.099609" xlink:href="#DejaVuSans-6c"/>
      <use x="329.882812" xlink:href="#DejaVuSans-20"/>
      <use x="361.669922" xlink:href="#DejaVuSans-4e"/>
      <use x="436.474609" xlink:href="#DejaVuSans-65"/>
      <use x="497.998047" xlink:href="#DejaVuSans-74"/>
      <use x="537.207031" xlink:href="#DejaVuSans-77"/>
      <use x="618.994141" xlink:href="#DejaVuSans-6f"/>
      <use x="680.175781" xlink:href="#DejaVuSans-72"/>
      <use x="721.289062" xlink:href="#DejaVuSans-6b"/>
     </g>
    </g>
    <g id="line2d_39">
     <path d="M 66.81875 50.839063 
L 86.81875 50.839063 
" style="fill:none;stroke:#ff7f0e;stroke-linecap:square;stroke-width:1.5;"/>
    </g>
    <g id="line2d_40">
     <g>
      <use style="fill:#ff7f0e;stroke:#ff7f0e;" x="76.81875" xlink:href="#m66bf5de544" y="50.839063"/>
     </g>
    </g>
    <g id="text_18">
     <!-- Data Science -->
     <defs>
      <path d="M 19.671875 64.796875 
L 19.671875 8.109375 
L 31.59375 8.109375 
Q 46.6875 8.109375 53.6875 14.9375 
Q 60.6875 21.78125 60.6875 36.53125 
Q 60.6875 51.171875 53.6875 57.984375 
Q 46.6875 64.796875 31.59375 64.796875 
z
M 9.8125 72.90625 
L 30.078125 72.90625 
Q 51.265625 72.90625 61.171875 64.09375 
Q 71.09375 55.28125 71.09375 36.53125 
Q 71.09375 17.671875 61.125 8.828125 
Q 51.171875 0 30.078125 0 
L 9.8125 0 
z
" id="DejaVuSans-44"/>
      <path d="M 53.515625 70.515625 
L 53.515625 60.890625 
Q 47.90625 63.578125 42.921875 64.890625 
Q 37.9375 66.21875 33.296875 66.21875 
Q 25.25 66.21875 20.875 63.09375 
Q 16.5 59.96875 16.5 54.203125 
Q 16.5 49.359375 19.40625 46.890625 
Q 22.3125 44.4375 30.421875 42.921875 
L 36.375 41.703125 
Q 47.40625 39.59375 52.65625 34.296875 
Q 57.90625 29 57.90625 20.125 
Q 57.90625 9.515625 50.796875 4.046875 
Q 43.703125 -1.421875 29.984375 -1.421875 
Q 24.8125 -1.421875 18.96875 -0.25 
Q 13.140625 0.921875 6.890625 3.21875 
L 6.890625 13.375 
Q 12.890625 10.015625 18.65625 8.296875 
Q 24.421875 6.59375 29.984375 6.59375 
Q 38.421875 6.59375 43.015625 9.90625 
Q 47.609375 13.234375 47.609375 19.390625 
Q 47.609375 24.75 44.3125 27.78125 
Q 41.015625 30.8125 33.5 32.328125 
L 27.484375 33.5 
Q 16.453125 35.6875 11.515625 40.375 
Q 6.59375 45.0625 6.59375 53.421875 
Q 6.59375 63.09375 13.40625 68.65625 
Q 20.21875 74.21875 32.171875 74.21875 
Q 37.3125 74.21875 42.625 73.28125 
Q 47.953125 72.359375 53.515625 70.515625 
z
" id="DejaVuSans-53"/>
      <path d="M 48.78125 52.59375 
L 48.78125 44.1875 
Q 44.96875 46.296875 41.140625 47.34375 
Q 37.3125 48.390625 33.40625 48.390625 
Q 24.65625 48.390625 19.8125 42.84375 
Q 14.984375 37.3125 14.984375 27.296875 
Q 14.984375 17.28125 19.8125 11.734375 
Q 24.65625 6.203125 33.40625 6.203125 
Q 37.3125 6.203125 41.140625 7.25 
Q 44.96875 8.296875 48.78125 10.40625 
L 48.78125 2.09375 
Q 45.015625 0.34375 40.984375 -0.53125 
Q 36.96875 -1.421875 32.421875 -1.421875 
Q 20.0625 -1.421875 12.78125 6.34375 
Q 5.515625 14.109375 5.515625 27.296875 
Q 5.515625 40.671875 12.859375 48.328125 
Q 20.21875 56 33.015625 56 
Q 37.15625 56 41.109375 55.140625 
Q 45.0625 54.296875 48.78125 52.59375 
z
" id="DejaVuSans-63"/>
      <path d="M 9.421875 54.6875 
L 18.40625 54.6875 
L 18.40625 0 
L 9.421875 0 
z
M 9.421875 75.984375 
L 18.40625 75.984375 
L 18.40625 64.59375 
L 9.421875 64.59375 
z
" id="DejaVuSans-69"/>
      <path d="M 54.890625 33.015625 
L 54.890625 0 
L 45.90625 0 
L 45.90625 32.71875 
Q 45.90625 40.484375 42.875 44.328125 
Q 39.84375 48.1875 33.796875 48.1875 
Q 26.515625 48.1875 22.3125 43.546875 
Q 18.109375 38.921875 18.109375 30.90625 
L 18.109375 0 
L 9.078125 0 
L 9.078125 54.6875 
L 18.109375 54.6875 
L 18.109375 46.1875 
Q 21.34375 51.125 25.703125 53.5625 
Q 30.078125 56 35.796875 56 
Q 45.21875 56 50.046875 50.171875 
Q 54.890625 44.34375 54.890625 33.015625 
z
" id="DejaVuSans-6e"/>
     </defs>
     <g transform="translate(94.81875 54.339063)scale(0.1 -0.1)">
      <use xlink:href="#DejaVuSans-44"/>
      <use x="77.001953" xlink:href="#DejaVuSans-61"/>
      <use x="138.28125" xlink:href="#DejaVuSans-74"/>
      <use x="177.490234" xlink:href="#DejaVuSans-61"/>
      <use x="238.769531" xlink:href="#DejaVuSans-20"/>
      <use x="270.556641" xlink:href="#DejaVuSans-53"/>
      <use x="334.033203" xlink:href="#DejaVuSans-63"/>
      <use x="389.013672" xlink:href="#DejaVuSans-69"/>
      <use x="416.796875" xlink:href="#DejaVuSans-65"/>
      <use x="478.320312" xlink:href="#DejaVuSans-6e"/>
      <use x="541.699219" xlink:href="#DejaVuSans-63"/>
      <use x="596.679688" xlink:href="#DejaVuSans-65"/>
     </g>
    </g>
    <g id="line2d_41">
     <path d="M 66.81875 65.517187 
L 86.81875 65.517187 
" style="fill:none;stroke:#2ca02c;stroke-linecap:square;stroke-width:1.5;"/>
    </g>
    <g id="line2d_42">
     <g>
      <use style="fill:#2ca02c;stroke:#2ca02c;" x="76.81875" xlink:href="#m1cf8164087" y="65.517187"/>
     </g>
    </g>
    <g id="text_19">
     <!-- Expert Systems -->
     <defs>
      <path d="M 9.8125 72.90625 
L 55.90625 72.90625 
L 55.90625 64.59375 
L 19.671875 64.59375 
L 19.671875 43.015625 
L 54.390625 43.015625 
L 54.390625 34.71875 
L 19.671875 34.71875 
L 19.671875 8.296875 
L 56.78125 8.296875 
L 56.78125 0 
L 9.8125 0 
z
" id="DejaVuSans-45"/>
      <path d="M 54.890625 54.6875 
L 35.109375 28.078125 
L 55.90625 0 
L 45.3125 0 
L 29.390625 21.484375 
L 13.484375 0 
L 2.875 0 
L 24.125 28.609375 
L 4.6875 54.6875 
L 15.28125 54.6875 
L 29.78125 35.203125 
L 44.28125 54.6875 
z
" id="DejaVuSans-78"/>
      <path d="M 18.109375 8.203125 
L 18.109375 -20.796875 
L 9.078125 -20.796875 
L 9.078125 54.6875 
L 18.109375 54.6875 
L 18.109375 46.390625 
Q 20.953125 51.265625 25.265625 53.625 
Q 29.59375 56 35.59375 56 
Q 45.5625 56 51.78125 48.09375 
Q 58.015625 40.1875 58.015625 27.296875 
Q 58.015625 14.40625 51.78125 6.484375 
Q 45.5625 -1.421875 35.59375 -1.421875 
Q 29.59375 -1.421875 25.265625 0.953125 
Q 20.953125 3.328125 18.109375 8.203125 
z
M 48.6875 27.296875 
Q 48.6875 37.203125 44.609375 42.84375 
Q 40.53125 48.484375 33.40625 48.484375 
Q 26.265625 48.484375 22.1875 42.84375 
Q 18.109375 37.203125 18.109375 27.296875 
Q 18.109375 17.390625 22.1875 11.75 
Q 26.265625 6.109375 33.40625 6.109375 
Q 40.53125 6.109375 44.609375 11.75 
Q 48.6875 17.390625 48.6875 27.296875 
z
" id="DejaVuSans-70"/>
      <path d="M 32.171875 -5.078125 
Q 28.375 -14.84375 24.75 -17.8125 
Q 21.140625 -20.796875 15.09375 -20.796875 
L 7.90625 -20.796875 
L 7.90625 -13.28125 
L 13.1875 -13.28125 
Q 16.890625 -13.28125 18.9375 -11.515625 
Q 21 -9.765625 23.484375 -3.21875 
L 25.09375 0.875 
L 2.984375 54.6875 
L 12.5 54.6875 
L 29.59375 11.921875 
L 46.6875 54.6875 
L 56.203125 54.6875 
z
" id="DejaVuSans-79"/>
      <path d="M 52 44.1875 
Q 55.375 50.25 60.0625 53.125 
Q 64.75 56 71.09375 56 
Q 79.640625 56 84.28125 50.015625 
Q 88.921875 44.046875 88.921875 33.015625 
L 88.921875 0 
L 79.890625 0 
L 79.890625 32.71875 
Q 79.890625 40.578125 77.09375 44.375 
Q 74.3125 48.1875 68.609375 48.1875 
Q 61.625 48.1875 57.5625 43.546875 
Q 53.515625 38.921875 53.515625 30.90625 
L 53.515625 0 
L 44.484375 0 
L 44.484375 32.71875 
Q 44.484375 40.625 41.703125 44.40625 
Q 38.921875 48.1875 33.109375 48.1875 
Q 26.21875 48.1875 22.15625 43.53125 
Q 18.109375 38.875 18.109375 30.90625 
L 18.109375 0 
L 9.078125 0 
L 9.078125 54.6875 
L 18.109375 54.6875 
L 18.109375 46.1875 
Q 21.1875 51.21875 25.484375 53.609375 
Q 29.78125 56 35.6875 56 
Q 41.65625 56 45.828125 52.96875 
Q 50 49.953125 52 44.1875 
z
" id="DejaVuSans-6d"/>
     </defs>
     <g transform="translate(94.81875 69.017187)scale(0.1 -0.1)">
      <use xlink:href="#DejaVuSans-45"/>
      <use x="63.183594" xlink:href="#DejaVuSans-78"/>
      <use x="122.363281" xlink:href="#DejaVuSans-70"/>
      <use x="185.839844" xlink:href="#DejaVuSans-65"/>
      <use x="247.363281" xlink:href="#DejaVuSans-72"/>
      <use x="288.476562" xlink:href="#DejaVuSans-74"/>
      <use x="327.685547" xlink:href="#DejaVuSans-20"/>
      <use x="359.472656" xlink:href="#DejaVuSans-53"/>
      <use x="422.949219" xlink:href="#DejaVuSans-79"/>
      <use x="482.128906" xlink:href="#DejaVuSans-73"/>
      <use x="534.228516" xlink:href="#DejaVuSans-74"/>
      <use x="573.4375" xlink:href="#DejaVuSans-65"/>
      <use x="634.960938" xlink:href="#DejaVuSans-6d"/>
      <use x="732.373047" xlink:href="#DejaVuSans-73"/>
     </g>
    </g>
    <g id="line2d_43">
     <path d="M 66.81875 80.195312 
L 86.81875 80.195312 
" style="fill:none;stroke:#d62728;stroke-linecap:square;stroke-width:1.5;"/>
    </g>
    <g id="line2d_44">
     <g>
      <use style="fill:#d62728;stroke:#d62728;" x="76.81875" xlink:href="#mef67f005c0" y="80.195312"/>
     </g>
    </g>
    <g id="text_20">
     <!-- Machine Learning -->
     <defs>
      <path d="M 9.8125 72.90625 
L 24.515625 72.90625 
L 43.109375 23.296875 
L 61.8125 72.90625 
L 76.515625 72.90625 
L 76.515625 0 
L 66.890625 0 
L 66.890625 64.015625 
L 48.09375 14.015625 
L 38.1875 14.015625 
L 19.390625 64.015625 
L 19.390625 0 
L 9.8125 0 
z
" id="DejaVuSans-4d"/>
      <path d="M 54.890625 33.015625 
L 54.890625 0 
L 45.90625 0 
L 45.90625 32.71875 
Q 45.90625 40.484375 42.875 44.328125 
Q 39.84375 48.1875 33.796875 48.1875 
Q 26.515625 48.1875 22.3125 43.546875 
Q 18.109375 38.921875 18.109375 30.90625 
L 18.109375 0 
L 9.078125 0 
L 9.078125 75.984375 
L 18.109375 75.984375 
L 18.109375 46.1875 
Q 21.34375 51.125 25.703125 53.5625 
Q 30.078125 56 35.796875 56 
Q 45.21875 56 50.046875 50.171875 
Q 54.890625 44.34375 54.890625 33.015625 
z
" id="DejaVuSans-68"/>
      <path d="M 9.8125 72.90625 
L 19.671875 72.90625 
L 19.671875 8.296875 
L 55.171875 8.296875 
L 55.171875 0 
L 9.8125 0 
z
" id="DejaVuSans-4c"/>
      <path d="M 45.40625 27.984375 
Q 45.40625 37.75 41.375 43.109375 
Q 37.359375 48.484375 30.078125 48.484375 
Q 22.859375 48.484375 18.828125 43.109375 
Q 14.796875 37.75 14.796875 27.984375 
Q 14.796875 18.265625 18.828125 12.890625 
Q 22.859375 7.515625 30.078125 7.515625 
Q 37.359375 7.515625 41.375 12.890625 
Q 45.40625 18.265625 45.40625 27.984375 
z
M 54.390625 6.78125 
Q 54.390625 -7.171875 48.1875 -13.984375 
Q 42 -20.796875 29.203125 -20.796875 
Q 24.46875 -20.796875 20.265625 -20.09375 
Q 16.0625 -19.390625 12.109375 -17.921875 
L 12.109375 -9.1875 
Q 16.0625 -11.328125 19.921875 -12.34375 
Q 23.78125 -13.375 27.78125 -13.375 
Q 36.625 -13.375 41.015625 -8.765625 
Q 45.40625 -4.15625 45.40625 5.171875 
L 45.40625 9.625 
Q 42.625 4.78125 38.28125 2.390625 
Q 33.9375 0 27.875 0 
Q 17.828125 0 11.671875 7.65625 
Q 5.515625 15.328125 5.515625 27.984375 
Q 5.515625 40.671875 11.671875 48.328125 
Q 17.828125 56 27.875 56 
Q 33.9375 56 38.28125 53.609375 
Q 42.625 51.21875 45.40625 46.390625 
L 45.40625 54.6875 
L 54.390625 54.6875 
z
" id="DejaVuSans-67"/>
     </defs>
     <g transform="translate(94.81875 83.695312)scale(0.1 -0.1)">
      <use xlink:href="#DejaVuSans-4d"/>
      <use x="86.279297" xlink:href="#DejaVuSans-61"/>
      <use x="147.558594" xlink:href="#DejaVuSans-63"/>
      <use x="202.539062" xlink:href="#DejaVuSans-68"/>
      <use x="265.917969" xlink:href="#DejaVuSans-69"/>
      <use x="293.701172" xlink:href="#DejaVuSans-6e"/>
      <use x="357.080078" xlink:href="#DejaVuSans-65"/>
      <use x="418.603516" xlink:href="#DejaVuSans-20"/>
      <use x="450.390625" xlink:href="#DejaVuSans-4c"/>
      <use x="506.087891" xlink:href="#DejaVuSans-65"/>
      <use x="567.611328" xlink:href="#DejaVuSans-61"/>
      <use x="628.890625" xlink:href="#DejaVuSans-72"/>
      <use x="669.988281" xlink:href="#DejaVuSans-6e"/>
      <use x="733.367188" xlink:href="#DejaVuSans-69"/>
      <use x="761.150391" xlink:href="#DejaVuSans-6e"/>
      <use x="824.529297" xlink:href="#DejaVuSans-67"/>
     </g>
    </g>
    <g id="line2d_45">
     <path d="M 66.81875 94.873438 
L 86.81875 94.873438 
" style="fill:none;stroke:#9467bd;stroke-linecap:square;stroke-width:1.5;"/>
    </g>
    <g id="line2d_46">
     <g>
      <use style="fill:#9467bd;stroke:#9467bd;" x="76.81875" xlink:href="#m7e22d8016b" y="94.873438"/>
     </g>
    </g>
    <g id="text_21">
     <!-- Artificial Intelligence -->
     <defs>
      <path d="M 34.1875 63.1875 
L 20.796875 26.90625 
L 47.609375 26.90625 
z
M 28.609375 72.90625 
L 39.796875 72.90625 
L 67.578125 0 
L 57.328125 0 
L 50.6875 18.703125 
L 17.828125 18.703125 
L 11.1875 0 
L 0.78125 0 
z
" id="DejaVuSans-41"/>
      <path d="M 37.109375 75.984375 
L 37.109375 68.5 
L 28.515625 68.5 
Q 23.6875 68.5 21.796875 66.546875 
Q 19.921875 64.59375 19.921875 59.515625 
L 19.921875 54.6875 
L 34.71875 54.6875 
L 34.71875 47.703125 
L 19.921875 47.703125 
L 19.921875 0 
L 10.890625 0 
L 10.890625 47.703125 
L 2.296875 47.703125 
L 2.296875 54.6875 
L 10.890625 54.6875 
L 10.890625 58.5 
Q 10.890625 67.625 15.140625 71.796875 
Q 19.390625 75.984375 28.609375 75.984375 
z
" id="DejaVuSans-66"/>
      <path d="M 9.8125 72.90625 
L 19.671875 72.90625 
L 19.671875 0 
L 9.8125 0 
z
" id="DejaVuSans-49"/>
     </defs>
     <g transform="translate(94.81875 98.373438)scale(0.1 -0.1)">
      <use xlink:href="#DejaVuSans-41"/>
      <use x="68.408203" xlink:href="#DejaVuSans-72"/>
      <use x="109.521484" xlink:href="#DejaVuSans-74"/>
      <use x="148.730469" xlink:href="#DejaVuSans-69"/>
      <use x="176.513672" xlink:href="#DejaVuSans-66"/>
      <use x="211.71875" xlink:href="#DejaVuSans-69"/>
      <use x="239.501953" xlink:href="#DejaVuSans-63"/>
      <use x="294.482422" xlink:href="#DejaVuSans-69"/>
      <use x="322.265625" xlink:href="#DejaVuSans-61"/>
      <use x="383.544922" xlink:href="#DejaVuSans-6c"/>
      <use x="411.328125" xlink:href="#DejaVuSans-20"/>
      <use x="443.115234" xlink:href="#DejaVuSans-49"/>
      <use x="472.607422" xlink:href="#DejaVuSans-6e"/>
      <use x="535.986328" xlink:href="#DejaVuSans-74"/>
      <use x="575.195312" xlink:href="#DejaVuSans-65"/>
      <use x="636.71875" xlink:href="#DejaVuSans-6c"/>
      <use x="664.501953" xlink:href="#DejaVuSans-6c"/>
      <use x="692.285156" xlink:href="#DejaVuSans-69"/>
      <use x="720.068359" xlink:href="#DejaVuSans-67"/>
      <use x="783.544922" xlink:href="#DejaVuSans-65"/>
      <use x="845.068359" xlink:href="#DejaVuSans-6e"/>
      <use x="908.447266" xlink:href="#DejaVuSans-63"/>
      <use x="963.427734" xlink:href="#DejaVuSans-65"/>
     </g>
    </g>
   </g>
  </g>
  <g id="text_22">
   <g id="patch_8">
    <path d="M 291.531563 39.451125 
L 500.468437 39.451125 
Q 504.068437 39.451125 504.068437 35.851125 
L 504.068437 10.8 
Q 504.068437 7.2 500.468437 7.2 
L 291.531563 7.2 
Q 287.931562 7.2 287.931562 10.8 
L 287.931562 35.851125 
Q 287.931562 39.451125 291.531563 39.451125 
z
" style="fill:#ffffff;stroke:#000000;stroke-linejoin:miter;"/>
   </g>
   <!-- Number of Publications 1990-2018 -->
   <defs>
    <path d="M 48.6875 27.296875 
Q 48.6875 37.203125 44.609375 42.84375 
Q 40.53125 48.484375 33.40625 48.484375 
Q 26.265625 48.484375 22.1875 42.84375 
Q 18.109375 37.203125 18.109375 27.296875 
Q 18.109375 17.390625 22.1875 11.75 
Q 26.265625 6.109375 33.40625 6.109375 
Q 40.53125 6.109375 44.609375 11.75 
Q 48.6875 17.390625 48.6875 27.296875 
z
M 18.109375 46.390625 
Q 20.953125 51.265625 25.265625 53.625 
Q 29.59375 56 35.59375 56 
Q 45.5625 56 51.78125 48.09375 
Q 58.015625 40.1875 58.015625 27.296875 
Q 58.015625 14.40625 51.78125 6.484375 
Q 45.5625 -1.421875 35.59375 -1.421875 
Q 29.59375 -1.421875 25.265625 0.953125 
Q 20.953125 3.328125 18.109375 8.203125 
L 18.109375 0 
L 9.078125 0 
L 9.078125 75.984375 
L 18.109375 75.984375 
z
" id="DejaVuSans-62"/>
    <path d="M 19.671875 64.796875 
L 19.671875 37.40625 
L 32.078125 37.40625 
Q 38.96875 37.40625 42.71875 40.96875 
Q 46.484375 44.53125 46.484375 51.125 
Q 46.484375 57.671875 42.71875 61.234375 
Q 38.96875 64.796875 32.078125 64.796875 
z
M 9.8125 72.90625 
L 32.078125 72.90625 
Q 44.34375 72.90625 50.609375 67.359375 
Q 56.890625 61.8125 56.890625 51.125 
Q 56.890625 40.328125 50.609375 34.8125 
Q 44.34375 29.296875 32.078125 29.296875 
L 19.671875 29.296875 
L 19.671875 0 
L 9.8125 0 
z
" id="DejaVuSans-50"/>
    <path d="M 4.890625 31.390625 
L 31.203125 31.390625 
L 31.203125 23.390625 
L 4.890625 23.390625 
z
" id="DejaVuSans-2d"/>
   </defs>
   <g transform="translate(291.531563 19.918125)scale(0.12 -0.12)">
    <use xlink:href="#DejaVuSans-4e"/>
    <use x="74.804688" xlink:href="#DejaVuSans-75"/>
    <use x="138.183594" xlink:href="#DejaVuSans-6d"/>
    <use x="235.595703" xlink:href="#DejaVuSans-62"/>
    <use x="299.072266" xlink:href="#DejaVuSans-65"/>
    <use x="360.595703" xlink:href="#DejaVuSans-72"/>
    <use x="401.708984" xlink:href="#DejaVuSans-20"/>
    <use x="433.496094" xlink:href="#DejaVuSans-6f"/>
    <use x="494.677734" xlink:href="#DejaVuSans-66"/>
    <use x="529.882812" xlink:href="#DejaVuSans-20"/>
    <use x="561.669922" xlink:href="#DejaVuSans-50"/>
    <use x="621.957031" xlink:href="#DejaVuSans-75"/>
    <use x="685.335938" xlink:href="#DejaVuSans-62"/>
    <use x="748.8125" xlink:href="#DejaVuSans-6c"/>
    <use x="776.595703" xlink:href="#DejaVuSans-69"/>
    <use x="804.378906" xlink:href="#DejaVuSans-63"/>
    <use x="859.359375" xlink:href="#DejaVuSans-61"/>
    <use x="920.638672" xlink:href="#DejaVuSans-74"/>
    <use x="959.847656" xlink:href="#DejaVuSans-69"/>
    <use x="987.630859" xlink:href="#DejaVuSans-6f"/>
    <use x="1048.8125" xlink:href="#DejaVuSans-6e"/>
    <use x="1112.191406" xlink:href="#DejaVuSans-73"/>
    <use x="1164.291016" xlink:href="#DejaVuSans-20"/>
    <use x="1196.078125" xlink:href="#DejaVuSans-31"/>
    <use x="1259.701172" xlink:href="#DejaVuSans-39"/>
    <use x="1323.324219" xlink:href="#DejaVuSans-39"/>
    <use x="1386.947266" xlink:href="#DejaVuSans-30"/>
    <use x="1450.570312" xlink:href="#DejaVuSans-2d"/>
    <use x="1486.654297" xlink:href="#DejaVuSans-32"/>
    <use x="1550.277344" xlink:href="#DejaVuSans-30"/>
    <use x="1613.900391" xlink:href="#DejaVuSans-31"/>
    <use x="1677.523438" xlink:href="#DejaVuSans-38"/>
   </g>
   <!-- According to Web of Knowledge -->
   <defs>
    <path d="M 45.40625 46.390625 
L 45.40625 75.984375 
L 54.390625 75.984375 
L 54.390625 0 
L 45.40625 0 
L 45.40625 8.203125 
Q 42.578125 3.328125 38.25 0.953125 
Q 33.9375 -1.421875 27.875 -1.421875 
Q 17.96875 -1.421875 11.734375 6.484375 
Q 5.515625 14.40625 5.515625 27.296875 
Q 5.515625 40.1875 11.734375 48.09375 
Q 17.96875 56 27.875 56 
Q 33.9375 56 38.25 53.625 
Q 42.578125 51.265625 45.40625 46.390625 
z
M 14.796875 27.296875 
Q 14.796875 17.390625 18.875 11.75 
Q 22.953125 6.109375 30.078125 6.109375 
Q 37.203125 6.109375 41.296875 11.75 
Q 45.40625 17.390625 45.40625 27.296875 
Q 45.40625 37.203125 41.296875 42.84375 
Q 37.203125 48.484375 30.078125 48.484375 
Q 22.953125 48.484375 18.875 42.84375 
Q 14.796875 37.203125 14.796875 27.296875 
z
" id="DejaVuSans-64"/>
    <path d="M 3.328125 72.90625 
L 13.28125 72.90625 
L 28.609375 11.28125 
L 43.890625 72.90625 
L 54.984375 72.90625 
L 70.3125 11.28125 
L 85.59375 72.90625 
L 95.609375 72.90625 
L 77.296875 0 
L 64.890625 0 
L 49.515625 63.28125 
L 33.984375 0 
L 21.578125 0 
z
" id="DejaVuSans-57"/>
    <path d="M 9.8125 72.90625 
L 19.671875 72.90625 
L 19.671875 42.09375 
L 52.390625 72.90625 
L 65.09375 72.90625 
L 28.90625 38.921875 
L 67.671875 0 
L 54.6875 0 
L 19.671875 35.109375 
L 19.671875 0 
L 9.8125 0 
z
" id="DejaVuSans-4b"/>
   </defs>
   <g transform="translate(300.226875 33.3555)scale(0.12 -0.12)">
    <use xlink:href="#DejaVuSans-41"/>
    <use x="68.392578" xlink:href="#DejaVuSans-63"/>
    <use x="123.373047" xlink:href="#DejaVuSans-63"/>
    <use x="178.353516" xlink:href="#DejaVuSans-6f"/>
    <use x="239.535156" xlink:href="#DejaVuSans-72"/>
    <use x="280.632812" xlink:href="#DejaVuSans-64"/>
    <use x="344.109375" xlink:href="#DejaVuSans-69"/>
    <use x="371.892578" xlink:href="#DejaVuSans-6e"/>
    <use x="435.271484" xlink:href="#DejaVuSans-67"/>
    <use x="498.748047" xlink:href="#DejaVuSans-20"/>
    <use x="530.535156" xlink:href="#DejaVuSans-74"/>
    <use x="569.744141" xlink:href="#DejaVuSans-6f"/>
    <use x="630.925781" xlink:href="#DejaVuSans-20"/>
    <use x="662.712891" xlink:href="#DejaVuSans-57"/>
    <use x="761.511719" xlink:href="#DejaVuSans-65"/>
    <use x="823.035156" xlink:href="#DejaVuSans-62"/>
    <use x="886.511719" xlink:href="#DejaVuSans-20"/>
    <use x="918.298828" xlink:href="#DejaVuSans-6f"/>
    <use x="979.480469" xlink:href="#DejaVuSans-66"/>
    <use x="1014.685547" xlink:href="#DejaVuSans-20"/>
    <use x="1046.472656" xlink:href="#DejaVuSans-4b"/>
    <use x="1112.048828" xlink:href="#DejaVuSans-6e"/>
    <use x="1175.427734" xlink:href="#DejaVuSans-6f"/>
    <use x="1236.609375" xlink:href="#DejaVuSans-77"/>
    <use x="1318.396484" xlink:href="#DejaVuSans-6c"/>
    <use x="1346.179688" xlink:href="#DejaVuSans-65"/>
    <use x="1407.703125" xlink:href="#DejaVuSans-64"/>
    <use x="1471.179688" xlink:href="#DejaVuSans-67"/>
    <use x="1534.65625" xlink:href="#DejaVuSans-65"/>
   </g>
  </g>
 </g>
 <defs>
  <clipPath id="p0c37161966">
   <rect height="473.375" width="702.00625" x="57.81875" y="23.0625"/>
  </clipPath>
 </defs>
</svg>
