<?xml version="1.0" encoding="utf-8" standalone="no"?>
<!DOCTYPE svg PUBLIC "-//W3C//DTD SVG 1.1//EN"
  "http://www.w3.org/Graphics/SVG/1.1/DTD/svg11.dtd">
<!-- Created with matplotlib (http://matplotlib.org/) -->
<svg height="540pt" version="1.1" viewBox="0 0 792 540" width="792pt" xmlns="http://www.w3.org/2000/svg" xmlns:xlink="http://www.w3.org/1999/xlink">
 <defs>
  <style type="text/css">
*{stroke-linecap:butt;stroke-linejoin:round;}
  </style>
 </defs>
 <g id="figure_1">
  <g id="patch_1">
   <path d="M 0 540 
L 792 540 
L 792 0 
L 0 0 
z
" style="fill:#ffffff;"/>
  </g>
  <g id="axes_1">
   <g id="patch_2">
    <path d="M 57.81875 496.4375 
L 759.825 496.4375 
L 759.825 23.0625 
L 57.81875 23.0625 
z
" style="fill:#f4f4f4;"/>
   </g>
   <g id="PolyCollection_1">
    <path clip-path="url(#pe4df860d24)" d="M 57.81875 496.4375 
L 57.81875 496.421817 
L 69.922306 496.421817 
L 82.025862 496.39045 
L 94.129418 496.421817 
L 106.232974 496.4375 
L 118.33653 496.39045 
L 130.440086 496.186564 
L 142.543642 496.39045 
L 154.647198 496.39045 
L 166.750754 496.406133 
L 178.85431 496.406133 
L 190.957866 496.312032 
L 203.061422 496.374766 
L 215.164978 496.312032 
L 227.268534 496.312032 
L 239.372091 496.249298 
L 251.475647 496.296349 
L 263.579203 496.374766 
L 275.682759 496.296349 
L 287.786315 496.249298 
L 299.889871 496.186564 
L 311.993427 496.359083 
L 324.096983 496.280665 
L 336.200539 496.264982 
L 348.304095 496.217931 
L 360.407651 496.155197 
L 372.511207 495.778793 
L 384.614763 495.057352 
L 396.718319 493.959507 
L 408.821875 487.670425 
L 420.925431 472.927937 
L 433.028987 458.765739 
L 445.132543 453.276515 
L 457.236099 437.734169 
L 469.339655 433.876029 
L 481.443211 426.583203 
L 493.546767 417.267205 
L 505.650323 399.654638 
L 517.753879 389.570149 
L 529.857435 413.236547 
L 541.960991 388.033166 
L 554.064547 390.526843 
L 566.168103 380.975593 
L 578.271659 370.216713 
L 590.375216 359.426467 
L 602.478772 337.077484 
L 614.582328 310.148919 
L 626.685884 297.696222 
L 638.78944 283.47129 
L 650.892996 259.553956 
L 662.996552 297.053198 
L 675.100108 286.65504 
L 687.203664 264.478574 
L 699.30722 250.37911 
L 711.410776 225.661919 
L 723.514332 172.196876 
L 735.617888 108.035689 
L 747.721444 23.0625 
L 759.825 41.835646 
L 759.825 496.4375 
L 759.825 496.4375 
L 747.721444 496.4375 
L 735.617888 496.4375 
L 723.514332 496.4375 
L 711.410776 496.4375 
L 699.30722 496.4375 
L 687.203664 496.4375 
L 675.100108 496.4375 
L 662.996552 496.4375 
L 650.892996 496.4375 
L 638.78944 496.4375 
L 626.685884 496.4375 
L 614.582328 496.4375 
L 602.478772 496.4375 
L 590.375216 496.4375 
L 578.271659 496.4375 
L 566.168103 496.4375 
L 554.064547 496.4375 
L 541.960991 496.4375 
L 529.857435 496.4375 
L 517.753879 496.4375 
L 505.650323 496.4375 
L 493.546767 496.4375 
L 481.443211 496.4375 
L 469.339655 496.4375 
L 457.236099 496.4375 
L 445.132543 496.4375 
L 433.028987 496.4375 
L 420.925431 496.4375 
L 408.821875 496.4375 
L 396.718319 496.4375 
L 384.614763 496.4375 
L 372.511207 496.4375 
L 360.407651 496.4375 
L 348.304095 496.4375 
L 336.200539 496.4375 
L 324.096983 496.4375 
L 311.993427 496.4375 
L 299.889871 496.4375 
L 287.786315 496.4375 
L 275.682759 496.4375 
L 263.579203 496.4375 
L 251.475647 496.4375 
L 239.372091 496.4375 
L 227.268534 496.4375 
L 215.164978 496.4375 
L 203.061422 496.4375 
L 190.957866 496.4375 
L 178.85431 496.4375 
L 166.750754 496.4375 
L 154.647198 496.4375 
L 142.543642 496.4375 
L 130.440086 496.4375 
L 118.33653 496.4375 
L 106.232974 496.4375 
L 94.129418 496.4375 
L 82.025862 496.4375 
L 69.922306 496.4375 
L 57.81875 496.4375 
z
" style="fill:#1f77b4;fill-opacity:0.25;"/>
   </g>
   <g id="matplotlib.axis_1">
    <g id="xtick_1">
     <g id="line2d_1">
      <path clip-path="url(#pe4df860d24)" d="M 82.025862 496.4375 
L 82.025862 23.0625 
" style="fill:none;stroke:#ffffff;stroke-linecap:square;stroke-width:0.8;"/>
     </g>
     <g id="line2d_2">
      <defs>
       <path d="M 0 0 
L 0 3.5 
" id="m59fe160edd" style="stroke:#000000;stroke-width:0.8;"/>
      </defs>
      <g>
       <use style="stroke:#000000;stroke-width:0.8;" x="82.025862" xlink:href="#m59fe160edd" y="496.4375"/>
      </g>
     </g>
     <g id="text_1">
      <!-- 1962 -->
      <defs>
       <path d="M 12.40625 8.296875 
L 28.515625 8.296875 
L 28.515625 63.921875 
L 10.984375 60.40625 
L 10.984375 69.390625 
L 28.421875 72.90625 
L 38.28125 72.90625 
L 38.28125 8.296875 
L 54.390625 8.296875 
L 54.390625 0 
L 12.40625 0 
z
" id="DejaVuSans-31"/>
       <path d="M 10.984375 1.515625 
L 10.984375 10.5 
Q 14.703125 8.734375 18.5 7.8125 
Q 22.3125 6.890625 25.984375 6.890625 
Q 35.75 6.890625 40.890625 13.453125 
Q 46.046875 20.015625 46.78125 33.40625 
Q 43.953125 29.203125 39.59375 26.953125 
Q 35.25 24.703125 29.984375 24.703125 
Q 19.046875 24.703125 12.671875 31.3125 
Q 6.296875 37.9375 6.296875 49.421875 
Q 6.296875 60.640625 12.9375 67.421875 
Q 19.578125 74.21875 30.609375 74.21875 
Q 43.265625 74.21875 49.921875 64.515625 
Q 56.59375 54.828125 56.59375 36.375 
Q 56.59375 19.140625 48.40625 8.859375 
Q 40.234375 -1.421875 26.421875 -1.421875 
Q 22.703125 -1.421875 18.890625 -0.6875 
Q 15.09375 0.046875 10.984375 1.515625 
z
M 30.609375 32.421875 
Q 37.25 32.421875 41.125 36.953125 
Q 45.015625 41.5 45.015625 49.421875 
Q 45.015625 57.28125 41.125 61.84375 
Q 37.25 66.40625 30.609375 66.40625 
Q 23.96875 66.40625 20.09375 61.84375 
Q 16.21875 57.28125 16.21875 49.421875 
Q 16.21875 41.5 20.09375 36.953125 
Q 23.96875 32.421875 30.609375 32.421875 
z
" id="DejaVuSans-39"/>
       <path d="M 33.015625 40.375 
Q 26.375 40.375 22.484375 35.828125 
Q 18.609375 31.296875 18.609375 23.390625 
Q 18.609375 15.53125 22.484375 10.953125 
Q 26.375 6.390625 33.015625 6.390625 
Q 39.65625 6.390625 43.53125 10.953125 
Q 47.40625 15.53125 47.40625 23.390625 
Q 47.40625 31.296875 43.53125 35.828125 
Q 39.65625 40.375 33.015625 40.375 
z
M 52.59375 71.296875 
L 52.59375 62.3125 
Q 48.875 64.0625 45.09375 64.984375 
Q 41.3125 65.921875 37.59375 65.921875 
Q 27.828125 65.921875 22.671875 59.328125 
Q 17.53125 52.734375 16.796875 39.40625 
Q 19.671875 43.65625 24.015625 45.921875 
Q 28.375 48.1875 33.59375 48.1875 
Q 44.578125 48.1875 50.953125 41.515625 
Q 57.328125 34.859375 57.328125 23.390625 
Q 57.328125 12.15625 50.6875 5.359375 
Q 44.046875 -1.421875 33.015625 -1.421875 
Q 20.359375 -1.421875 13.671875 8.265625 
Q 6.984375 17.96875 6.984375 36.375 
Q 6.984375 53.65625 15.1875 63.9375 
Q 23.390625 74.21875 37.203125 74.21875 
Q 40.921875 74.21875 44.703125 73.484375 
Q 48.484375 72.75 52.59375 71.296875 
z
" id="DejaVuSans-36"/>
       <path d="M 19.1875 8.296875 
L 53.609375 8.296875 
L 53.609375 0 
L 7.328125 0 
L 7.328125 8.296875 
Q 12.9375 14.109375 22.625 23.890625 
Q 32.328125 33.6875 34.8125 36.53125 
Q 39.546875 41.84375 41.421875 45.53125 
Q 43.3125 49.21875 43.3125 52.78125 
Q 43.3125 58.59375 39.234375 62.25 
Q 35.15625 65.921875 28.609375 65.921875 
Q 23.96875 65.921875 18.8125 64.3125 
Q 13.671875 62.703125 7.8125 59.421875 
L 7.8125 69.390625 
Q 13.765625 71.78125 18.9375 73 
Q 24.125 74.21875 28.421875 74.21875 
Q 39.75 74.21875 46.484375 68.546875 
Q 53.21875 62.890625 53.21875 53.421875 
Q 53.21875 48.921875 51.53125 44.890625 
Q 49.859375 40.875 45.40625 35.40625 
Q 44.1875 33.984375 37.640625 27.21875 
Q 31.109375 20.453125 19.1875 8.296875 
z
" id="DejaVuSans-32"/>
      </defs>
      <g transform="translate(78.053051 529.277065)rotate(-60)scale(0.1 -0.1)">
       <use xlink:href="#DejaVuSans-31"/>
       <use x="63.623047" xlink:href="#DejaVuSans-39"/>
       <use x="127.246094" xlink:href="#DejaVuSans-36"/>
       <use x="190.869141" xlink:href="#DejaVuSans-32"/>
      </g>
     </g>
    </g>
    <g id="xtick_2">
     <g id="line2d_3">
      <path clip-path="url(#pe4df860d24)" d="M 154.647198 496.4375 
L 154.647198 23.0625 
" style="fill:none;stroke:#ffffff;stroke-linecap:square;stroke-width:0.8;"/>
     </g>
     <g id="line2d_4">
      <g>
       <use style="stroke:#000000;stroke-width:0.8;" x="154.647198" xlink:href="#m59fe160edd" y="496.4375"/>
      </g>
     </g>
     <g id="text_2">
      <!-- 1968 -->
      <defs>
       <path d="M 31.78125 34.625 
Q 24.75 34.625 20.71875 30.859375 
Q 16.703125 27.09375 16.703125 20.515625 
Q 16.703125 13.921875 20.71875 10.15625 
Q 24.75 6.390625 31.78125 6.390625 
Q 38.8125 6.390625 42.859375 10.171875 
Q 46.921875 13.96875 46.921875 20.515625 
Q 46.921875 27.09375 42.890625 30.859375 
Q 38.875 34.625 31.78125 34.625 
z
M 21.921875 38.8125 
Q 15.578125 40.375 12.03125 44.71875 
Q 8.5 49.078125 8.5 55.328125 
Q 8.5 64.0625 14.71875 69.140625 
Q 20.953125 74.21875 31.78125 74.21875 
Q 42.671875 74.21875 48.875 69.140625 
Q 55.078125 64.0625 55.078125 55.328125 
Q 55.078125 49.078125 51.53125 44.71875 
Q 48 40.375 41.703125 38.8125 
Q 48.828125 37.15625 52.796875 32.3125 
Q 56.78125 27.484375 56.78125 20.515625 
Q 56.78125 9.90625 50.3125 4.234375 
Q 43.84375 -1.421875 31.78125 -1.421875 
Q 19.734375 -1.421875 13.25 4.234375 
Q 6.78125 9.90625 6.78125 20.515625 
Q 6.78125 27.484375 10.78125 32.3125 
Q 14.796875 37.15625 21.921875 38.8125 
z
M 18.3125 54.390625 
Q 18.3125 48.734375 21.84375 45.5625 
Q 25.390625 42.390625 31.78125 42.390625 
Q 38.140625 42.390625 41.71875 45.5625 
Q 45.3125 48.734375 45.3125 54.390625 
Q 45.3125 60.0625 41.71875 63.234375 
Q 38.140625 66.40625 31.78125 66.40625 
Q 25.390625 66.40625 21.84375 63.234375 
Q 18.3125 60.0625 18.3125 54.390625 
z
" id="DejaVuSans-38"/>
      </defs>
      <g transform="translate(150.674387 529.277065)rotate(-60)scale(0.1 -0.1)">
       <use xlink:href="#DejaVuSans-31"/>
       <use x="63.623047" xlink:href="#DejaVuSans-39"/>
       <use x="127.246094" xlink:href="#DejaVuSans-36"/>
       <use x="190.869141" xlink:href="#DejaVuSans-38"/>
      </g>
     </g>
    </g>
    <g id="xtick_3">
     <g id="line2d_5">
      <path clip-path="url(#pe4df860d24)" d="M 227.268534 496.4375 
L 227.268534 23.0625 
" style="fill:none;stroke:#ffffff;stroke-linecap:square;stroke-width:0.8;"/>
     </g>
     <g id="line2d_6">
      <g>
       <use style="stroke:#000000;stroke-width:0.8;" x="227.268534" xlink:href="#m59fe160edd" y="496.4375"/>
      </g>
     </g>
     <g id="text_3">
      <!-- 1974 -->
      <defs>
       <path d="M 8.203125 72.90625 
L 55.078125 72.90625 
L 55.078125 68.703125 
L 28.609375 0 
L 18.3125 0 
L 43.21875 64.59375 
L 8.203125 64.59375 
z
" id="DejaVuSans-37"/>
       <path d="M 37.796875 64.3125 
L 12.890625 25.390625 
L 37.796875 25.390625 
z
M 35.203125 72.90625 
L 47.609375 72.90625 
L 47.609375 25.390625 
L 58.015625 25.390625 
L 58.015625 17.1875 
L 47.609375 17.1875 
L 47.609375 0 
L 37.796875 0 
L 37.796875 17.1875 
L 4.890625 17.1875 
L 4.890625 26.703125 
z
" id="DejaVuSans-34"/>
      </defs>
      <g transform="translate(223.295723 529.277065)rotate(-60)scale(0.1 -0.1)">
       <use xlink:href="#DejaVuSans-31"/>
       <use x="63.623047" xlink:href="#DejaVuSans-39"/>
       <use x="127.246094" xlink:href="#DejaVuSans-37"/>
       <use x="190.869141" xlink:href="#DejaVuSans-34"/>
      </g>
     </g>
    </g>
    <g id="xtick_4">
     <g id="line2d_7">
      <path clip-path="url(#pe4df860d24)" d="M 299.889871 496.4375 
L 299.889871 23.0625 
" style="fill:none;stroke:#ffffff;stroke-linecap:square;stroke-width:0.8;"/>
     </g>
     <g id="line2d_8">
      <g>
       <use style="stroke:#000000;stroke-width:0.8;" x="299.889871" xlink:href="#m59fe160edd" y="496.4375"/>
      </g>
     </g>
     <g id="text_4">
      <!-- 1980 -->
      <defs>
       <path d="M 31.78125 66.40625 
Q 24.171875 66.40625 20.328125 58.90625 
Q 16.5 51.421875 16.5 36.375 
Q 16.5 21.390625 20.328125 13.890625 
Q 24.171875 6.390625 31.78125 6.390625 
Q 39.453125 6.390625 43.28125 13.890625 
Q 47.125 21.390625 47.125 36.375 
Q 47.125 51.421875 43.28125 58.90625 
Q 39.453125 66.40625 31.78125 66.40625 
z
M 31.78125 74.21875 
Q 44.046875 74.21875 50.515625 64.515625 
Q 56.984375 54.828125 56.984375 36.375 
Q 56.984375 17.96875 50.515625 8.265625 
Q 44.046875 -1.421875 31.78125 -1.421875 
Q 19.53125 -1.421875 13.0625 8.265625 
Q 6.59375 17.96875 6.59375 36.375 
Q 6.59375 54.828125 13.0625 64.515625 
Q 19.53125 74.21875 31.78125 74.21875 
z
" id="DejaVuSans-30"/>
      </defs>
      <g transform="translate(295.91706 529.277065)rotate(-60)scale(0.1 -0.1)">
       <use xlink:href="#DejaVuSans-31"/>
       <use x="63.623047" xlink:href="#DejaVuSans-39"/>
       <use x="127.246094" xlink:href="#DejaVuSans-38"/>
       <use x="190.869141" xlink:href="#DejaVuSans-30"/>
      </g>
     </g>
    </g>
    <g id="xtick_5">
     <g id="line2d_9">
      <path clip-path="url(#pe4df860d24)" d="M 372.511207 496.4375 
L 372.511207 23.0625 
" style="fill:none;stroke:#ffffff;stroke-linecap:square;stroke-width:0.8;"/>
     </g>
     <g id="line2d_10">
      <g>
       <use style="stroke:#000000;stroke-width:0.8;" x="372.511207" xlink:href="#m59fe160edd" y="496.4375"/>
      </g>
     </g>
     <g id="text_5">
      <!-- 1986 -->
      <g transform="translate(368.538396 529.277065)rotate(-60)scale(0.1 -0.1)">
       <use xlink:href="#DejaVuSans-31"/>
       <use x="63.623047" xlink:href="#DejaVuSans-39"/>
       <use x="127.246094" xlink:href="#DejaVuSans-38"/>
       <use x="190.869141" xlink:href="#DejaVuSans-36"/>
      </g>
     </g>
    </g>
    <g id="xtick_6">
     <g id="line2d_11">
      <path clip-path="url(#pe4df860d24)" d="M 445.132543 496.4375 
L 445.132543 23.0625 
" style="fill:none;stroke:#ffffff;stroke-linecap:square;stroke-width:0.8;"/>
     </g>
     <g id="line2d_12">
      <g>
       <use style="stroke:#000000;stroke-width:0.8;" x="445.132543" xlink:href="#m59fe160edd" y="496.4375"/>
      </g>
     </g>
     <g id="text_6">
      <!-- 1992 -->
      <g transform="translate(441.159732 529.277065)rotate(-60)scale(0.1 -0.1)">
       <use xlink:href="#DejaVuSans-31"/>
       <use x="63.623047" xlink:href="#DejaVuSans-39"/>
       <use x="127.246094" xlink:href="#DejaVuSans-39"/>
       <use x="190.869141" xlink:href="#DejaVuSans-32"/>
      </g>
     </g>
    </g>
    <g id="xtick_7">
     <g id="line2d_13">
      <path clip-path="url(#pe4df860d24)" d="M 517.753879 496.4375 
L 517.753879 23.0625 
" style="fill:none;stroke:#ffffff;stroke-linecap:square;stroke-width:0.8;"/>
     </g>
     <g id="line2d_14">
      <g>
       <use style="stroke:#000000;stroke-width:0.8;" x="517.753879" xlink:href="#m59fe160edd" y="496.4375"/>
      </g>
     </g>
     <g id="text_7">
      <!-- 1998 -->
      <g transform="translate(513.781068 529.277065)rotate(-60)scale(0.1 -0.1)">
       <use xlink:href="#DejaVuSans-31"/>
       <use x="63.623047" xlink:href="#DejaVuSans-39"/>
       <use x="127.246094" xlink:href="#DejaVuSans-39"/>
       <use x="190.869141" xlink:href="#DejaVuSans-38"/>
      </g>
     </g>
    </g>
    <g id="xtick_8">
     <g id="line2d_15">
      <path clip-path="url(#pe4df860d24)" d="M 590.375216 496.4375 
L 590.375216 23.0625 
" style="fill:none;stroke:#ffffff;stroke-linecap:square;stroke-width:0.8;"/>
     </g>
     <g id="line2d_16">
      <g>
       <use style="stroke:#000000;stroke-width:0.8;" x="590.375216" xlink:href="#m59fe160edd" y="496.4375"/>
      </g>
     </g>
     <g id="text_8">
      <!-- 2004 -->
      <g transform="translate(586.402404 529.277065)rotate(-60)scale(0.1 -0.1)">
       <use xlink:href="#DejaVuSans-32"/>
       <use x="63.623047" xlink:href="#DejaVuSans-30"/>
       <use x="127.246094" xlink:href="#DejaVuSans-30"/>
       <use x="190.869141" xlink:href="#DejaVuSans-34"/>
      </g>
     </g>
    </g>
    <g id="xtick_9">
     <g id="line2d_17">
      <path clip-path="url(#pe4df860d24)" d="M 662.996552 496.4375 
L 662.996552 23.0625 
" style="fill:none;stroke:#ffffff;stroke-linecap:square;stroke-width:0.8;"/>
     </g>
     <g id="line2d_18">
      <g>
       <use style="stroke:#000000;stroke-width:0.8;" x="662.996552" xlink:href="#m59fe160edd" y="496.4375"/>
      </g>
     </g>
     <g id="text_9">
      <!-- 2010 -->
      <g transform="translate(659.023741 529.277065)rotate(-60)scale(0.1 -0.1)">
       <use xlink:href="#DejaVuSans-32"/>
       <use x="63.623047" xlink:href="#DejaVuSans-30"/>
       <use x="127.246094" xlink:href="#DejaVuSans-31"/>
       <use x="190.869141" xlink:href="#DejaVuSans-30"/>
      </g>
     </g>
    </g>
    <g id="xtick_10">
     <g id="line2d_19">
      <path clip-path="url(#pe4df860d24)" d="M 735.617888 496.4375 
L 735.617888 23.0625 
" style="fill:none;stroke:#ffffff;stroke-linecap:square;stroke-width:0.8;"/>
     </g>
     <g id="line2d_20">
      <g>
       <use style="stroke:#000000;stroke-width:0.8;" x="735.617888" xlink:href="#m59fe160edd" y="496.4375"/>
      </g>
     </g>
     <g id="text_10">
      <!-- 2016 -->
      <g transform="translate(731.645077 529.277065)rotate(-60)scale(0.1 -0.1)">
       <use xlink:href="#DejaVuSans-32"/>
       <use x="63.623047" xlink:href="#DejaVuSans-30"/>
       <use x="127.246094" xlink:href="#DejaVuSans-31"/>
       <use x="190.869141" xlink:href="#DejaVuSans-36"/>
      </g>
     </g>
    </g>
   </g>
   <g id="matplotlib.axis_2">
    <g id="ytick_1">
     <g id="line2d_21">
      <path clip-path="url(#pe4df860d24)" d="M 57.81875 496.4375 
L 759.825 496.4375 
" style="fill:none;stroke:#ffffff;stroke-linecap:square;stroke-width:0.8;"/>
     </g>
     <g id="line2d_22">
      <defs>
       <path d="M 0 0 
L -3.5 0 
" id="m59dd805e50" style="stroke:#000000;stroke-width:0.8;"/>
      </defs>
      <g>
       <use style="stroke:#000000;stroke-width:0.8;" x="57.81875" xlink:href="#m59dd805e50" y="496.4375"/>
      </g>
     </g>
     <g id="text_11">
      <!-- 0 -->
      <g transform="translate(44.45625 500.236719)scale(0.1 -0.1)">
       <use xlink:href="#DejaVuSans-30"/>
      </g>
     </g>
    </g>
    <g id="ytick_2">
     <g id="line2d_23">
      <path clip-path="url(#pe4df860d24)" d="M 57.81875 418.020013 
L 759.825 418.020013 
" style="fill:none;stroke:#ffffff;stroke-linecap:square;stroke-width:0.8;"/>
     </g>
     <g id="line2d_24">
      <g>
       <use style="stroke:#000000;stroke-width:0.8;" x="57.81875" xlink:href="#m59dd805e50" y="418.020013"/>
      </g>
     </g>
     <g id="text_12">
      <!-- 5000 -->
      <defs>
       <path d="M 10.796875 72.90625 
L 49.515625 72.90625 
L 49.515625 64.59375 
L 19.828125 64.59375 
L 19.828125 46.734375 
Q 21.96875 47.46875 24.109375 47.828125 
Q 26.265625 48.1875 28.421875 48.1875 
Q 40.625 48.1875 47.75 41.5 
Q 54.890625 34.8125 54.890625 23.390625 
Q 54.890625 11.625 47.5625 5.09375 
Q 40.234375 -1.421875 26.90625 -1.421875 
Q 22.3125 -1.421875 17.546875 -0.640625 
Q 12.796875 0.140625 7.71875 1.703125 
L 7.71875 11.625 
Q 12.109375 9.234375 16.796875 8.0625 
Q 21.484375 6.890625 26.703125 6.890625 
Q 35.15625 6.890625 40.078125 11.328125 
Q 45.015625 15.765625 45.015625 23.390625 
Q 45.015625 31 40.078125 35.4375 
Q 35.15625 39.890625 26.703125 39.890625 
Q 22.75 39.890625 18.8125 39.015625 
Q 14.890625 38.140625 10.796875 36.28125 
z
" id="DejaVuSans-35"/>
      </defs>
      <g transform="translate(25.36875 421.819232)scale(0.1 -0.1)">
       <use xlink:href="#DejaVuSans-35"/>
       <use x="63.623047" xlink:href="#DejaVuSans-30"/>
       <use x="127.246094" xlink:href="#DejaVuSans-30"/>
       <use x="190.869141" xlink:href="#DejaVuSans-30"/>
      </g>
     </g>
    </g>
    <g id="ytick_3">
     <g id="line2d_25">
      <path clip-path="url(#pe4df860d24)" d="M 57.81875 339.602527 
L 759.825 339.602527 
" style="fill:none;stroke:#ffffff;stroke-linecap:square;stroke-width:0.8;"/>
     </g>
     <g id="line2d_26">
      <g>
       <use style="stroke:#000000;stroke-width:0.8;" x="57.81875" xlink:href="#m59dd805e50" y="339.602527"/>
      </g>
     </g>
     <g id="text_13">
      <!-- 10000 -->
      <g transform="translate(19.00625 343.401745)scale(0.1 -0.1)">
       <use xlink:href="#DejaVuSans-31"/>
       <use x="63.623047" xlink:href="#DejaVuSans-30"/>
       <use x="127.246094" xlink:href="#DejaVuSans-30"/>
       <use x="190.869141" xlink:href="#DejaVuSans-30"/>
       <use x="254.492188" xlink:href="#DejaVuSans-30"/>
      </g>
     </g>
    </g>
    <g id="ytick_4">
     <g id="line2d_27">
      <path clip-path="url(#pe4df860d24)" d="M 57.81875 261.18504 
L 759.825 261.18504 
" style="fill:none;stroke:#ffffff;stroke-linecap:square;stroke-width:0.8;"/>
     </g>
     <g id="line2d_28">
      <g>
       <use style="stroke:#000000;stroke-width:0.8;" x="57.81875" xlink:href="#m59dd805e50" y="261.18504"/>
      </g>
     </g>
     <g id="text_14">
      <!-- 15000 -->
      <g transform="translate(19.00625 264.984259)scale(0.1 -0.1)">
       <use xlink:href="#DejaVuSans-31"/>
       <use x="63.623047" xlink:href="#DejaVuSans-35"/>
       <use x="127.246094" xlink:href="#DejaVuSans-30"/>
       <use x="190.869141" xlink:href="#DejaVuSans-30"/>
       <use x="254.492188" xlink:href="#DejaVuSans-30"/>
      </g>
     </g>
    </g>
    <g id="ytick_5">
     <g id="line2d_29">
      <path clip-path="url(#pe4df860d24)" d="M 57.81875 182.767553 
L 759.825 182.767553 
" style="fill:none;stroke:#ffffff;stroke-linecap:square;stroke-width:0.8;"/>
     </g>
     <g id="line2d_30">
      <g>
       <use style="stroke:#000000;stroke-width:0.8;" x="57.81875" xlink:href="#m59dd805e50" y="182.767553"/>
      </g>
     </g>
     <g id="text_15">
      <!-- 20000 -->
      <g transform="translate(19.00625 186.566772)scale(0.1 -0.1)">
       <use xlink:href="#DejaVuSans-32"/>
       <use x="63.623047" xlink:href="#DejaVuSans-30"/>
       <use x="127.246094" xlink:href="#DejaVuSans-30"/>
       <use x="190.869141" xlink:href="#DejaVuSans-30"/>
       <use x="254.492188" xlink:href="#DejaVuSans-30"/>
      </g>
     </g>
    </g>
    <g id="ytick_6">
     <g id="line2d_31">
      <path clip-path="url(#pe4df860d24)" d="M 57.81875 104.350067 
L 759.825 104.350067 
" style="fill:none;stroke:#ffffff;stroke-linecap:square;stroke-width:0.8;"/>
     </g>
     <g id="line2d_32">
      <g>
       <use style="stroke:#000000;stroke-width:0.8;" x="57.81875" xlink:href="#m59dd805e50" y="104.350067"/>
      </g>
     </g>
     <g id="text_16">
      <!-- 25000 -->
      <g transform="translate(19.00625 108.149285)scale(0.1 -0.1)">
       <use xlink:href="#DejaVuSans-32"/>
       <use x="63.623047" xlink:href="#DejaVuSans-35"/>
       <use x="127.246094" xlink:href="#DejaVuSans-30"/>
       <use x="190.869141" xlink:href="#DejaVuSans-30"/>
       <use x="254.492188" xlink:href="#DejaVuSans-30"/>
      </g>
     </g>
    </g>
    <g id="ytick_7">
     <g id="line2d_33">
      <path clip-path="url(#pe4df860d24)" d="M 57.81875 25.93258 
L 759.825 25.93258 
" style="fill:none;stroke:#ffffff;stroke-linecap:square;stroke-width:0.8;"/>
     </g>
     <g id="line2d_34">
      <g>
       <use style="stroke:#000000;stroke-width:0.8;" x="57.81875" xlink:href="#m59dd805e50" y="25.93258"/>
      </g>
     </g>
     <g id="text_17">
      <!-- 30000 -->
      <defs>
       <path d="M 40.578125 39.3125 
Q 47.65625 37.796875 51.625 33 
Q 55.609375 28.21875 55.609375 21.1875 
Q 55.609375 10.40625 48.1875 4.484375 
Q 40.765625 -1.421875 27.09375 -1.421875 
Q 22.515625 -1.421875 17.65625 -0.515625 
Q 12.796875 0.390625 7.625 2.203125 
L 7.625 11.71875 
Q 11.71875 9.328125 16.59375 8.109375 
Q 21.484375 6.890625 26.8125 6.890625 
Q 36.078125 6.890625 40.9375 10.546875 
Q 45.796875 14.203125 45.796875 21.1875 
Q 45.796875 27.640625 41.28125 31.265625 
Q 36.765625 34.90625 28.71875 34.90625 
L 20.21875 34.90625 
L 20.21875 43.015625 
L 29.109375 43.015625 
Q 36.375 43.015625 40.234375 45.921875 
Q 44.09375 48.828125 44.09375 54.296875 
Q 44.09375 59.90625 40.109375 62.90625 
Q 36.140625 65.921875 28.71875 65.921875 
Q 24.65625 65.921875 20.015625 65.03125 
Q 15.375 64.15625 9.8125 62.3125 
L 9.8125 71.09375 
Q 15.4375 72.65625 20.34375 73.4375 
Q 25.25 74.21875 29.59375 74.21875 
Q 40.828125 74.21875 47.359375 69.109375 
Q 53.90625 64.015625 53.90625 55.328125 
Q 53.90625 49.265625 50.4375 45.09375 
Q 46.96875 40.921875 40.578125 39.3125 
z
" id="DejaVuSans-33"/>
      </defs>
      <g transform="translate(19.00625 29.731799)scale(0.1 -0.1)">
       <use xlink:href="#DejaVuSans-33"/>
       <use x="63.623047" xlink:href="#DejaVuSans-30"/>
       <use x="127.246094" xlink:href="#DejaVuSans-30"/>
       <use x="190.869141" xlink:href="#DejaVuSans-30"/>
       <use x="254.492188" xlink:href="#DejaVuSans-30"/>
      </g>
     </g>
    </g>
   </g>
   <g id="line2d_35">
    <path clip-path="url(#pe4df860d24)" d="M 227.268534 496.4375 
L 227.268534 23.0625 
" style="fill:none;opacity:0.5;stroke:#000000;stroke-dasharray:5.55,2.4;stroke-dashoffset:0;stroke-width:1.5;"/>
   </g>
   <g id="line2d_36">
    <path clip-path="url(#pe4df860d24)" d="M 299.889871 496.4375 
L 299.889871 23.0625 
" style="fill:none;opacity:0.5;stroke:#000000;stroke-dasharray:5.55,2.4;stroke-dashoffset:0;stroke-width:1.5;"/>
   </g>
   <g id="line2d_37">
    <path clip-path="url(#pe4df860d24)" d="M 384.614763 496.4375 
L 384.614763 23.0625 
" style="fill:none;opacity:0.5;stroke:#000000;stroke-dasharray:5.55,2.4;stroke-dashoffset:0;stroke-width:1.5;"/>
   </g>
   <g id="line2d_38">
    <path clip-path="url(#pe4df860d24)" d="M 457.236099 496.4375 
L 457.236099 23.0625 
" style="fill:none;opacity:0.5;stroke:#000000;stroke-dasharray:5.55,2.4;stroke-dashoffset:0;stroke-width:1.5;"/>
   </g>
   <g id="line2d_39">
    <path clip-path="url(#pe4df860d24)" d="M 57.81875 496.421817 
L 69.922306 496.421817 
L 82.025862 496.39045 
L 94.129418 496.421817 
L 106.232974 496.4375 
L 118.33653 496.39045 
L 130.440086 496.186564 
L 142.543642 496.39045 
L 154.647198 496.39045 
L 166.750754 496.406133 
L 178.85431 496.406133 
L 190.957866 496.312032 
L 203.061422 496.374766 
L 215.164978 496.312032 
L 227.268534 496.312032 
L 239.372091 496.249298 
L 251.475647 496.296349 
L 263.579203 496.374766 
L 275.682759 496.296349 
L 287.786315 496.249298 
L 299.889871 496.186564 
L 311.993427 496.359083 
L 324.096983 496.280665 
L 336.200539 496.264982 
L 348.304095 496.217931 
L 360.407651 496.155197 
L 372.511207 495.778793 
L 384.614763 495.057352 
L 396.718319 493.959507 
L 408.821875 487.670425 
L 420.925431 472.927937 
L 433.028987 458.765739 
L 445.132543 453.276515 
L 457.236099 437.734169 
L 469.339655 433.876029 
L 481.443211 426.583203 
L 493.546767 417.267205 
L 505.650323 399.654638 
L 517.753879 389.570149 
L 529.857435 413.236547 
L 541.960991 388.033166 
L 554.064547 390.526843 
L 566.168103 380.975593 
L 578.271659 370.216713 
L 590.375216 359.426467 
L 602.478772 337.077484 
L 614.582328 310.148919 
L 626.685884 297.696222 
L 638.78944 283.47129 
L 650.892996 259.553956 
L 662.996552 297.053198 
L 675.100108 286.65504 
L 687.203664 264.478574 
L 699.30722 250.37911 
L 711.410776 225.661919 
L 723.514332 172.196876 
L 735.617888 108.035689 
L 747.721444 23.0625 
L 759.825 41.835646 
" style="fill:none;opacity:0.75;stroke:#1f77b4;stroke-linecap:square;stroke-width:1.5;"/>
    <defs>
     <path d="M 0 1.5 
C 0.397805 1.5 0.77937 1.341951 1.06066 1.06066 
C 1.341951 0.77937 1.5 0.397805 1.5 0 
C 1.5 -0.397805 1.341951 -0.77937 1.06066 -1.06066 
C 0.77937 -1.341951 0.397805 -1.5 0 -1.5 
C -0.397805 -1.5 -0.77937 -1.341951 -1.06066 -1.06066 
C -1.341951 -0.77937 -1.5 -0.397805 -1.5 0 
C -1.5 0.397805 -1.341951 0.77937 -1.06066 1.06066 
C -0.77937 1.341951 -0.397805 1.5 0 1.5 
z
" id="med67eb3f9f" style="stroke:#1f77b4;"/>
    </defs>
    <g clip-path="url(#pe4df860d24)">
     <use style="fill:#1f77b4;opacity:0.75;stroke:#1f77b4;" x="57.81875" xlink:href="#med67eb3f9f" y="496.421817"/>
     <use style="fill:#1f77b4;opacity:0.75;stroke:#1f77b4;" x="69.922306" xlink:href="#med67eb3f9f" y="496.421817"/>
     <use style="fill:#1f77b4;opacity:0.75;stroke:#1f77b4;" x="82.025862" xlink:href="#med67eb3f9f" y="496.39045"/>
     <use style="fill:#1f77b4;opacity:0.75;stroke:#1f77b4;" x="94.129418" xlink:href="#med67eb3f9f" y="496.421817"/>
     <use style="fill:#1f77b4;opacity:0.75;stroke:#1f77b4;" x="106.232974" xlink:href="#med67eb3f9f" y="496.4375"/>
     <use style="fill:#1f77b4;opacity:0.75;stroke:#1f77b4;" x="118.33653" xlink:href="#med67eb3f9f" y="496.39045"/>
     <use style="fill:#1f77b4;opacity:0.75;stroke:#1f77b4;" x="130.440086" xlink:href="#med67eb3f9f" y="496.186564"/>
     <use style="fill:#1f77b4;opacity:0.75;stroke:#1f77b4;" x="142.543642" xlink:href="#med67eb3f9f" y="496.39045"/>
     <use style="fill:#1f77b4;opacity:0.75;stroke:#1f77b4;" x="154.647198" xlink:href="#med67eb3f9f" y="496.39045"/>
     <use style="fill:#1f77b4;opacity:0.75;stroke:#1f77b4;" x="166.750754" xlink:href="#med67eb3f9f" y="496.406133"/>
     <use style="fill:#1f77b4;opacity:0.75;stroke:#1f77b4;" x="178.85431" xlink:href="#med67eb3f9f" y="496.406133"/>
     <use style="fill:#1f77b4;opacity:0.75;stroke:#1f77b4;" x="190.957866" xlink:href="#med67eb3f9f" y="496.312032"/>
     <use style="fill:#1f77b4;opacity:0.75;stroke:#1f77b4;" x="203.061422" xlink:href="#med67eb3f9f" y="496.374766"/>
     <use style="fill:#1f77b4;opacity:0.75;stroke:#1f77b4;" x="215.164978" xlink:href="#med67eb3f9f" y="496.312032"/>
     <use style="fill:#1f77b4;opacity:0.75;stroke:#1f77b4;" x="227.268534" xlink:href="#med67eb3f9f" y="496.312032"/>
     <use style="fill:#1f77b4;opacity:0.75;stroke:#1f77b4;" x="239.372091" xlink:href="#med67eb3f9f" y="496.249298"/>
     <use style="fill:#1f77b4;opacity:0.75;stroke:#1f77b4;" x="251.475647" xlink:href="#med67eb3f9f" y="496.296349"/>
     <use style="fill:#1f77b4;opacity:0.75;stroke:#1f77b4;" x="263.579203" xlink:href="#med67eb3f9f" y="496.374766"/>
     <use style="fill:#1f77b4;opacity:0.75;stroke:#1f77b4;" x="275.682759" xlink:href="#med67eb3f9f" y="496.296349"/>
     <use style="fill:#1f77b4;opacity:0.75;stroke:#1f77b4;" x="287.786315" xlink:href="#med67eb3f9f" y="496.249298"/>
     <use style="fill:#1f77b4;opacity:0.75;stroke:#1f77b4;" x="299.889871" xlink:href="#med67eb3f9f" y="496.186564"/>
     <use style="fill:#1f77b4;opacity:0.75;stroke:#1f77b4;" x="311.993427" xlink:href="#med67eb3f9f" y="496.359083"/>
     <use style="fill:#1f77b4;opacity:0.75;stroke:#1f77b4;" x="324.096983" xlink:href="#med67eb3f9f" y="496.280665"/>
     <use style="fill:#1f77b4;opacity:0.75;stroke:#1f77b4;" x="336.200539" xlink:href="#med67eb3f9f" y="496.264982"/>
     <use style="fill:#1f77b4;opacity:0.75;stroke:#1f77b4;" x="348.304095" xlink:href="#med67eb3f9f" y="496.217931"/>
     <use style="fill:#1f77b4;opacity:0.75;stroke:#1f77b4;" x="360.407651" xlink:href="#med67eb3f9f" y="496.155197"/>
     <use style="fill:#1f77b4;opacity:0.75;stroke:#1f77b4;" x="372.511207" xlink:href="#med67eb3f9f" y="495.778793"/>
     <use style="fill:#1f77b4;opacity:0.75;stroke:#1f77b4;" x="384.614763" xlink:href="#med67eb3f9f" y="495.057352"/>
     <use style="fill:#1f77b4;opacity:0.75;stroke:#1f77b4;" x="396.718319" xlink:href="#med67eb3f9f" y="493.959507"/>
     <use style="fill:#1f77b4;opacity:0.75;stroke:#1f77b4;" x="408.821875" xlink:href="#med67eb3f9f" y="487.670425"/>
     <use style="fill:#1f77b4;opacity:0.75;stroke:#1f77b4;" x="420.925431" xlink:href="#med67eb3f9f" y="472.927937"/>
     <use style="fill:#1f77b4;opacity:0.75;stroke:#1f77b4;" x="433.028987" xlink:href="#med67eb3f9f" y="458.765739"/>
     <use style="fill:#1f77b4;opacity:0.75;stroke:#1f77b4;" x="445.132543" xlink:href="#med67eb3f9f" y="453.276515"/>
     <use style="fill:#1f77b4;opacity:0.75;stroke:#1f77b4;" x="457.236099" xlink:href="#med67eb3f9f" y="437.734169"/>
     <use style="fill:#1f77b4;opacity:0.75;stroke:#1f77b4;" x="469.339655" xlink:href="#med67eb3f9f" y="433.876029"/>
     <use style="fill:#1f77b4;opacity:0.75;stroke:#1f77b4;" x="481.443211" xlink:href="#med67eb3f9f" y="426.583203"/>
     <use style="fill:#1f77b4;opacity:0.75;stroke:#1f77b4;" x="493.546767" xlink:href="#med67eb3f9f" y="417.267205"/>
     <use style="fill:#1f77b4;opacity:0.75;stroke:#1f77b4;" x="505.650323" xlink:href="#med67eb3f9f" y="399.654638"/>
     <use style="fill:#1f77b4;opacity:0.75;stroke:#1f77b4;" x="517.753879" xlink:href="#med67eb3f9f" y="389.570149"/>
     <use style="fill:#1f77b4;opacity:0.75;stroke:#1f77b4;" x="529.857435" xlink:href="#med67eb3f9f" y="413.236547"/>
     <use style="fill:#1f77b4;opacity:0.75;stroke:#1f77b4;" x="541.960991" xlink:href="#med67eb3f9f" y="388.033166"/>
     <use style="fill:#1f77b4;opacity:0.75;stroke:#1f77b4;" x="554.064547" xlink:href="#med67eb3f9f" y="390.526843"/>
     <use style="fill:#1f77b4;opacity:0.75;stroke:#1f77b4;" x="566.168103" xlink:href="#med67eb3f9f" y="380.975593"/>
     <use style="fill:#1f77b4;opacity:0.75;stroke:#1f77b4;" x="578.271659" xlink:href="#med67eb3f9f" y="370.216713"/>
     <use style="fill:#1f77b4;opacity:0.75;stroke:#1f77b4;" x="590.375216" xlink:href="#med67eb3f9f" y="359.426467"/>
     <use style="fill:#1f77b4;opacity:0.75;stroke:#1f77b4;" x="602.478772" xlink:href="#med67eb3f9f" y="337.077484"/>
     <use style="fill:#1f77b4;opacity:0.75;stroke:#1f77b4;" x="614.582328" xlink:href="#med67eb3f9f" y="310.148919"/>
     <use style="fill:#1f77b4;opacity:0.75;stroke:#1f77b4;" x="626.685884" xlink:href="#med67eb3f9f" y="297.696222"/>
     <use style="fill:#1f77b4;opacity:0.75;stroke:#1f77b4;" x="638.78944" xlink:href="#med67eb3f9f" y="283.47129"/>
     <use style="fill:#1f77b4;opacity:0.75;stroke:#1f77b4;" x="650.892996" xlink:href="#med67eb3f9f" y="259.553956"/>
     <use style="fill:#1f77b4;opacity:0.75;stroke:#1f77b4;" x="662.996552" xlink:href="#med67eb3f9f" y="297.053198"/>
     <use style="fill:#1f77b4;opacity:0.75;stroke:#1f77b4;" x="675.100108" xlink:href="#med67eb3f9f" y="286.65504"/>
     <use style="fill:#1f77b4;opacity:0.75;stroke:#1f77b4;" x="687.203664" xlink:href="#med67eb3f9f" y="264.478574"/>
     <use style="fill:#1f77b4;opacity:0.75;stroke:#1f77b4;" x="699.30722" xlink:href="#med67eb3f9f" y="250.37911"/>
     <use style="fill:#1f77b4;opacity:0.75;stroke:#1f77b4;" x="711.410776" xlink:href="#med67eb3f9f" y="225.661919"/>
     <use style="fill:#1f77b4;opacity:0.75;stroke:#1f77b4;" x="723.514332" xlink:href="#med67eb3f9f" y="172.196876"/>
     <use style="fill:#1f77b4;opacity:0.75;stroke:#1f77b4;" x="735.617888" xlink:href="#med67eb3f9f" y="108.035689"/>
     <use style="fill:#1f77b4;opacity:0.75;stroke:#1f77b4;" x="747.721444" xlink:href="#med67eb3f9f" y="23.0625"/>
     <use style="fill:#1f77b4;opacity:0.75;stroke:#1f77b4;" x="759.825" xlink:href="#med67eb3f9f" y="41.835646"/>
    </g>
   </g>
   <g id="patch_3">
    <path d="M 57.81875 496.4375 
L 57.81875 23.0625 
" style="fill:none;stroke:#000000;stroke-linecap:square;stroke-linejoin:miter;stroke-width:0.8;"/>
   </g>
   <g id="patch_4">
    <path d="M 759.825 496.4375 
L 759.825 23.0625 
" style="fill:none;stroke:#000000;stroke-linecap:square;stroke-linejoin:miter;stroke-width:0.8;"/>
   </g>
   <g id="patch_5">
    <path d="M 57.81875 496.4375 
L 759.825 496.4375 
" style="fill:none;stroke:#000000;stroke-linecap:square;stroke-linejoin:miter;stroke-width:0.8;"/>
   </g>
   <g id="patch_6">
    <path d="M 57.81875 23.0625 
L 759.825 23.0625 
" style="fill:none;stroke:#000000;stroke-linecap:square;stroke-linejoin:miter;stroke-width:0.8;"/>
   </g>
   <g id="text_18">
    <!-- Golden Years -->
    <defs>
     <path d="M 59.515625 10.40625 
L 59.515625 29.984375 
L 43.40625 29.984375 
L 43.40625 38.09375 
L 69.28125 38.09375 
L 69.28125 6.78125 
Q 63.578125 2.734375 56.6875 0.65625 
Q 49.8125 -1.421875 42 -1.421875 
Q 24.90625 -1.421875 15.25 8.5625 
Q 5.609375 18.5625 5.609375 36.375 
Q 5.609375 54.25 15.25 64.234375 
Q 24.90625 74.21875 42 74.21875 
Q 49.125 74.21875 55.546875 72.453125 
Q 61.96875 70.703125 67.390625 67.28125 
L 67.390625 56.78125 
Q 61.921875 61.421875 55.765625 63.765625 
Q 49.609375 66.109375 42.828125 66.109375 
Q 29.4375 66.109375 22.71875 58.640625 
Q 16.015625 51.171875 16.015625 36.375 
Q 16.015625 21.625 22.71875 14.15625 
Q 29.4375 6.6875 42.828125 6.6875 
Q 48.046875 6.6875 52.140625 7.59375 
Q 56.25 8.5 59.515625 10.40625 
z
" id="DejaVuSans-47"/>
     <path d="M 30.609375 48.390625 
Q 23.390625 48.390625 19.1875 42.75 
Q 14.984375 37.109375 14.984375 27.296875 
Q 14.984375 17.484375 19.15625 11.84375 
Q 23.34375 6.203125 30.609375 6.203125 
Q 37.796875 6.203125 41.984375 11.859375 
Q 46.1875 17.53125 46.1875 27.296875 
Q 46.1875 37.015625 41.984375 42.703125 
Q 37.796875 48.390625 30.609375 48.390625 
z
M 30.609375 56 
Q 42.328125 56 49.015625 48.375 
Q 55.71875 40.765625 55.71875 27.296875 
Q 55.71875 13.875 49.015625 6.21875 
Q 42.328125 -1.421875 30.609375 -1.421875 
Q 18.84375 -1.421875 12.171875 6.21875 
Q 5.515625 13.875 5.515625 27.296875 
Q 5.515625 40.765625 12.171875 48.375 
Q 18.84375 56 30.609375 56 
z
" id="DejaVuSans-6f"/>
     <path d="M 9.421875 75.984375 
L 18.40625 75.984375 
L 18.40625 0 
L 9.421875 0 
z
" id="DejaVuSans-6c"/>
     <path d="M 45.40625 46.390625 
L 45.40625 75.984375 
L 54.390625 75.984375 
L 54.390625 0 
L 45.40625 0 
L 45.40625 8.203125 
Q 42.578125 3.328125 38.25 0.953125 
Q 33.9375 -1.421875 27.875 -1.421875 
Q 17.96875 -1.421875 11.734375 6.484375 
Q 5.515625 14.40625 5.515625 27.296875 
Q 5.515625 40.1875 11.734375 48.09375 
Q 17.96875 56 27.875 56 
Q 33.9375 56 38.25 53.625 
Q 42.578125 51.265625 45.40625 46.390625 
z
M 14.796875 27.296875 
Q 14.796875 17.390625 18.875 11.75 
Q 22.953125 6.109375 30.078125 6.109375 
Q 37.203125 6.109375 41.296875 11.75 
Q 45.40625 17.390625 45.40625 27.296875 
Q 45.40625 37.203125 41.296875 42.84375 
Q 37.203125 48.484375 30.078125 48.484375 
Q 22.953125 48.484375 18.875 42.84375 
Q 14.796875 37.203125 14.796875 27.296875 
z
" id="DejaVuSans-64"/>
     <path d="M 56.203125 29.59375 
L 56.203125 25.203125 
L 14.890625 25.203125 
Q 15.484375 15.921875 20.484375 11.0625 
Q 25.484375 6.203125 34.421875 6.203125 
Q 39.59375 6.203125 44.453125 7.46875 
Q 49.3125 8.734375 54.109375 11.28125 
L 54.109375 2.78125 
Q 49.265625 0.734375 44.1875 -0.34375 
Q 39.109375 -1.421875 33.890625 -1.421875 
Q 20.796875 -1.421875 13.15625 6.1875 
Q 5.515625 13.8125 5.515625 26.8125 
Q 5.515625 40.234375 12.765625 48.109375 
Q 20.015625 56 32.328125 56 
Q 43.359375 56 49.78125 48.890625 
Q 56.203125 41.796875 56.203125 29.59375 
z
M 47.21875 32.234375 
Q 47.125 39.59375 43.09375 43.984375 
Q 39.0625 48.390625 32.421875 48.390625 
Q 24.90625 48.390625 20.390625 44.140625 
Q 15.875 39.890625 15.1875 32.171875 
z
" id="DejaVuSans-65"/>
     <path d="M 54.890625 33.015625 
L 54.890625 0 
L 45.90625 0 
L 45.90625 32.71875 
Q 45.90625 40.484375 42.875 44.328125 
Q 39.84375 48.1875 33.796875 48.1875 
Q 26.515625 48.1875 22.3125 43.546875 
Q 18.109375 38.921875 18.109375 30.90625 
L 18.109375 0 
L 9.078125 0 
L 9.078125 54.6875 
L 18.109375 54.6875 
L 18.109375 46.1875 
Q 21.34375 51.125 25.703125 53.5625 
Q 30.078125 56 35.796875 56 
Q 45.21875 56 50.046875 50.171875 
Q 54.890625 44.34375 54.890625 33.015625 
z
" id="DejaVuSans-6e"/>
     <path id="DejaVuSans-20"/>
     <path d="M -0.203125 72.90625 
L 10.40625 72.90625 
L 30.609375 42.921875 
L 50.6875 72.90625 
L 61.28125 72.90625 
L 35.5 34.71875 
L 35.5 0 
L 25.59375 0 
L 25.59375 34.71875 
z
" id="DejaVuSans-59"/>
     <path d="M 34.28125 27.484375 
Q 23.390625 27.484375 19.1875 25 
Q 14.984375 22.515625 14.984375 16.5 
Q 14.984375 11.71875 18.140625 8.90625 
Q 21.296875 6.109375 26.703125 6.109375 
Q 34.1875 6.109375 38.703125 11.40625 
Q 43.21875 16.703125 43.21875 25.484375 
L 43.21875 27.484375 
z
M 52.203125 31.203125 
L 52.203125 0 
L 43.21875 0 
L 43.21875 8.296875 
Q 40.140625 3.328125 35.546875 0.953125 
Q 30.953125 -1.421875 24.3125 -1.421875 
Q 15.921875 -1.421875 10.953125 3.296875 
Q 6 8.015625 6 15.921875 
Q 6 25.140625 12.171875 29.828125 
Q 18.359375 34.515625 30.609375 34.515625 
L 43.21875 34.515625 
L 43.21875 35.40625 
Q 43.21875 41.609375 39.140625 45 
Q 35.0625 48.390625 27.6875 48.390625 
Q 23 48.390625 18.546875 47.265625 
Q 14.109375 46.140625 10.015625 43.890625 
L 10.015625 52.203125 
Q 14.9375 54.109375 19.578125 55.046875 
Q 24.21875 56 28.609375 56 
Q 40.484375 56 46.34375 49.84375 
Q 52.203125 43.703125 52.203125 31.203125 
z
" id="DejaVuSans-61"/>
     <path d="M 41.109375 46.296875 
Q 39.59375 47.171875 37.8125 47.578125 
Q 36.03125 48 33.890625 48 
Q 26.265625 48 22.1875 43.046875 
Q 18.109375 38.09375 18.109375 28.8125 
L 18.109375 0 
L 9.078125 0 
L 9.078125 54.6875 
L 18.109375 54.6875 
L 18.109375 46.1875 
Q 20.953125 51.171875 25.484375 53.578125 
Q 30.03125 56 36.53125 56 
Q 37.453125 56 38.578125 55.875 
Q 39.703125 55.765625 41.0625 55.515625 
z
" id="DejaVuSans-72"/>
     <path d="M 44.28125 53.078125 
L 44.28125 44.578125 
Q 40.484375 46.53125 36.375 47.5 
Q 32.28125 48.484375 27.875 48.484375 
Q 21.1875 48.484375 17.84375 46.4375 
Q 14.5 44.390625 14.5 40.28125 
Q 14.5 37.15625 16.890625 35.375 
Q 19.28125 33.59375 26.515625 31.984375 
L 29.59375 31.296875 
Q 39.15625 29.25 43.1875 25.515625 
Q 47.21875 21.78125 47.21875 15.09375 
Q 47.21875 7.46875 41.1875 3.015625 
Q 35.15625 -1.421875 24.609375 -1.421875 
Q 20.21875 -1.421875 15.453125 -0.5625 
Q 10.6875 0.296875 5.421875 2 
L 5.421875 11.28125 
Q 10.40625 8.6875 15.234375 7.390625 
Q 20.0625 6.109375 24.8125 6.109375 
Q 31.15625 6.109375 34.5625 8.28125 
Q 37.984375 10.453125 37.984375 14.40625 
Q 37.984375 18.0625 35.515625 20.015625 
Q 33.0625 21.96875 24.703125 23.78125 
L 21.578125 24.515625 
Q 13.234375 26.265625 9.515625 29.90625 
Q 5.8125 33.546875 5.8125 39.890625 
Q 5.8125 47.609375 11.28125 51.796875 
Q 16.75 56 26.8125 56 
Q 31.78125 56 36.171875 55.265625 
Q 40.578125 54.546875 44.28125 53.078125 
z
" id="DejaVuSans-73"/>
    </defs>
    <g transform="translate(121.035995 474.509993)rotate(-45)scale(0.1 -0.1)">
     <use xlink:href="#DejaVuSans-47"/>
     <use x="77.490234" xlink:href="#DejaVuSans-6f"/>
     <use x="138.671875" xlink:href="#DejaVuSans-6c"/>
     <use x="166.455078" xlink:href="#DejaVuSans-64"/>
     <use x="229.931641" xlink:href="#DejaVuSans-65"/>
     <use x="291.455078" xlink:href="#DejaVuSans-6e"/>
     <use x="354.833984" xlink:href="#DejaVuSans-20"/>
     <use x="386.621094" xlink:href="#DejaVuSans-59"/>
     <use x="447.501953" xlink:href="#DejaVuSans-65"/>
     <use x="509.025391" xlink:href="#DejaVuSans-61"/>
     <use x="570.304688" xlink:href="#DejaVuSans-72"/>
     <use x="611.417969" xlink:href="#DejaVuSans-73"/>
    </g>
   </g>
   <g id="text_19">
    <!-- First AI Winter -->
    <defs>
     <path d="M 9.8125 72.90625 
L 51.703125 72.90625 
L 51.703125 64.59375 
L 19.671875 64.59375 
L 19.671875 43.109375 
L 48.578125 43.109375 
L 48.578125 34.8125 
L 19.671875 34.8125 
L 19.671875 0 
L 9.8125 0 
z
" id="DejaVuSans-46"/>
     <path d="M 9.421875 54.6875 
L 18.40625 54.6875 
L 18.40625 0 
L 9.421875 0 
z
M 9.421875 75.984375 
L 18.40625 75.984375 
L 18.40625 64.59375 
L 9.421875 64.59375 
z
" id="DejaVuSans-69"/>
     <path d="M 18.3125 70.21875 
L 18.3125 54.6875 
L 36.8125 54.6875 
L 36.8125 47.703125 
L 18.3125 47.703125 
L 18.3125 18.015625 
Q 18.3125 11.328125 20.140625 9.421875 
Q 21.96875 7.515625 27.59375 7.515625 
L 36.8125 7.515625 
L 36.8125 0 
L 27.59375 0 
Q 17.1875 0 13.234375 3.875 
Q 9.28125 7.765625 9.28125 18.015625 
L 9.28125 47.703125 
L 2.6875 47.703125 
L 2.6875 54.6875 
L 9.28125 54.6875 
L 9.28125 70.21875 
z
" id="DejaVuSans-74"/>
     <path d="M 34.1875 63.1875 
L 20.796875 26.90625 
L 47.609375 26.90625 
z
M 28.609375 72.90625 
L 39.796875 72.90625 
L 67.578125 0 
L 57.328125 0 
L 50.6875 18.703125 
L 17.828125 18.703125 
L 11.1875 0 
L 0.78125 0 
z
" id="DejaVuSans-41"/>
     <path d="M 9.8125 72.90625 
L 19.671875 72.90625 
L 19.671875 0 
L 9.8125 0 
z
" id="DejaVuSans-49"/>
     <path d="M 3.328125 72.90625 
L 13.28125 72.90625 
L 28.609375 11.28125 
L 43.890625 72.90625 
L 54.984375 72.90625 
L 70.3125 11.28125 
L 85.59375 72.90625 
L 95.609375 72.90625 
L 77.296875 0 
L 64.890625 0 
L 49.515625 63.28125 
L 33.984375 0 
L 21.578125 0 
z
" id="DejaVuSans-57"/>
    </defs>
    <g transform="translate(240.396044 476.185504)rotate(-45)scale(0.1 -0.1)">
     <use xlink:href="#DejaVuSans-46"/>
     <use x="57.410156" xlink:href="#DejaVuSans-69"/>
     <use x="85.193359" xlink:href="#DejaVuSans-72"/>
     <use x="126.306641" xlink:href="#DejaVuSans-73"/>
     <use x="178.40625" xlink:href="#DejaVuSans-74"/>
     <use x="217.615234" xlink:href="#DejaVuSans-20"/>
     <use x="249.402344" xlink:href="#DejaVuSans-41"/>
     <use x="317.810547" xlink:href="#DejaVuSans-49"/>
     <use x="347.302734" xlink:href="#DejaVuSans-20"/>
     <use x="379.089844" xlink:href="#DejaVuSans-57"/>
     <use x="477.935547" xlink:href="#DejaVuSans-69"/>
     <use x="505.71875" xlink:href="#DejaVuSans-6e"/>
     <use x="569.097656" xlink:href="#DejaVuSans-74"/>
     <use x="608.306641" xlink:href="#DejaVuSans-65"/>
     <use x="669.830078" xlink:href="#DejaVuSans-72"/>
    </g>
   </g>
   <g id="text_20">
    <!-- Boom -->
    <defs>
     <path d="M 19.671875 34.8125 
L 19.671875 8.109375 
L 35.5 8.109375 
Q 43.453125 8.109375 47.28125 11.40625 
Q 51.125 14.703125 51.125 21.484375 
Q 51.125 28.328125 47.28125 31.5625 
Q 43.453125 34.8125 35.5 34.8125 
z
M 19.671875 64.796875 
L 19.671875 42.828125 
L 34.28125 42.828125 
Q 41.5 42.828125 45.03125 45.53125 
Q 48.578125 48.25 48.578125 53.8125 
Q 48.578125 59.328125 45.03125 62.0625 
Q 41.5 64.796875 34.28125 64.796875 
z
M 9.8125 72.90625 
L 35.015625 72.90625 
Q 46.296875 72.90625 52.390625 68.21875 
Q 58.5 63.53125 58.5 54.890625 
Q 58.5 48.1875 55.375 44.234375 
Q 52.25 40.28125 46.1875 39.3125 
Q 53.46875 37.75 57.5 32.78125 
Q 61.53125 27.828125 61.53125 20.40625 
Q 61.53125 10.640625 54.890625 5.3125 
Q 48.25 0 35.984375 0 
L 9.8125 0 
z
" id="DejaVuSans-42"/>
     <path d="M 52 44.1875 
Q 55.375 50.25 60.0625 53.125 
Q 64.75 56 71.09375 56 
Q 79.640625 56 84.28125 50.015625 
Q 88.921875 44.046875 88.921875 33.015625 
L 88.921875 0 
L 79.890625 0 
L 79.890625 32.71875 
Q 79.890625 40.578125 77.09375 44.375 
Q 74.3125 48.1875 68.609375 48.1875 
Q 61.625 48.1875 57.5625 43.546875 
Q 53.515625 38.921875 53.515625 30.90625 
L 53.515625 0 
L 44.484375 0 
L 44.484375 32.71875 
Q 44.484375 40.625 41.703125 44.40625 
Q 38.921875 48.1875 33.109375 48.1875 
Q 26.21875 48.1875 22.15625 43.53125 
Q 18.109375 38.875 18.109375 30.90625 
L 18.109375 0 
L 9.078125 0 
L 9.078125 54.6875 
L 18.109375 54.6875 
L 18.109375 46.1875 
Q 21.1875 51.21875 25.484375 53.609375 
Q 29.78125 56 35.6875 56 
Q 41.65625 56 45.828125 52.96875 
Q 50 49.953125 52 44.1875 
z
" id="DejaVuSans-6d"/>
    </defs>
    <g transform="translate(334.007341 461.247321)rotate(-45)scale(0.1 -0.1)">
     <use xlink:href="#DejaVuSans-42"/>
     <use x="68.603516" xlink:href="#DejaVuSans-6f"/>
     <use x="129.785156" xlink:href="#DejaVuSans-6f"/>
     <use x="190.966797" xlink:href="#DejaVuSans-6d"/>
    </g>
   </g>
   <g id="text_21">
    <!-- Bust -->
    <defs>
     <path d="M 8.5 21.578125 
L 8.5 54.6875 
L 17.484375 54.6875 
L 17.484375 21.921875 
Q 17.484375 14.15625 20.5 10.265625 
Q 23.53125 6.390625 29.59375 6.390625 
Q 36.859375 6.390625 41.078125 11.03125 
Q 45.3125 15.671875 45.3125 23.6875 
L 45.3125 54.6875 
L 54.296875 54.6875 
L 54.296875 0 
L 45.3125 0 
L 45.3125 8.40625 
Q 42.046875 3.421875 37.71875 1 
Q 33.40625 -1.421875 27.6875 -1.421875 
Q 18.265625 -1.421875 13.375 4.4375 
Q 8.5 10.296875 8.5 21.578125 
z
M 31.109375 56 
z
" id="DejaVuSans-75"/>
    </defs>
    <g transform="translate(414.98242 458.945357)rotate(-45)scale(0.1 -0.1)">
     <use xlink:href="#DejaVuSans-42"/>
     <use x="68.603516" xlink:href="#DejaVuSans-75"/>
     <use x="131.982422" xlink:href="#DejaVuSans-73"/>
     <use x="184.082031" xlink:href="#DejaVuSans-74"/>
    </g>
   </g>
  </g>
  <g id="text_22">
   <g id="patch_7">
    <path d="M 227.195625 39.451125 
L 564.804375 39.451125 
Q 568.404375 39.451125 568.404375 35.851125 
L 568.404375 10.8 
Q 568.404375 7.2 564.804375 7.2 
L 227.195625 7.2 
Q 223.595625 7.2 223.595625 10.8 
L 223.595625 35.851125 
Q 223.595625 39.451125 227.195625 39.451125 
z
" style="fill:#ffffff;stroke:#000000;stroke-linejoin:miter;"/>
   </g>
   <!-- Number of Publications for "Neural Network" 1960-2018 -->
   <defs>
    <path d="M 9.8125 72.90625 
L 23.09375 72.90625 
L 55.421875 11.921875 
L 55.421875 72.90625 
L 64.984375 72.90625 
L 64.984375 0 
L 51.703125 0 
L 19.390625 60.984375 
L 19.390625 0 
L 9.8125 0 
z
" id="DejaVuSans-4e"/>
    <path d="M 48.6875 27.296875 
Q 48.6875 37.203125 44.609375 42.84375 
Q 40.53125 48.484375 33.40625 48.484375 
Q 26.265625 48.484375 22.1875 42.84375 
Q 18.109375 37.203125 18.109375 27.296875 
Q 18.109375 17.390625 22.1875 11.75 
Q 26.265625 6.109375 33.40625 6.109375 
Q 40.53125 6.109375 44.609375 11.75 
Q 48.6875 17.390625 48.6875 27.296875 
z
M 18.109375 46.390625 
Q 20.953125 51.265625 25.265625 53.625 
Q 29.59375 56 35.59375 56 
Q 45.5625 56 51.78125 48.09375 
Q 58.015625 40.1875 58.015625 27.296875 
Q 58.015625 14.40625 51.78125 6.484375 
Q 45.5625 -1.421875 35.59375 -1.421875 
Q 29.59375 -1.421875 25.265625 0.953125 
Q 20.953125 3.328125 18.109375 8.203125 
L 18.109375 0 
L 9.078125 0 
L 9.078125 75.984375 
L 18.109375 75.984375 
z
" id="DejaVuSans-62"/>
    <path d="M 37.109375 75.984375 
L 37.109375 68.5 
L 28.515625 68.5 
Q 23.6875 68.5 21.796875 66.546875 
Q 19.921875 64.59375 19.921875 59.515625 
L 19.921875 54.6875 
L 34.71875 54.6875 
L 34.71875 47.703125 
L 19.921875 47.703125 
L 19.921875 0 
L 10.890625 0 
L 10.890625 47.703125 
L 2.296875 47.703125 
L 2.296875 54.6875 
L 10.890625 54.6875 
L 10.890625 58.5 
Q 10.890625 67.625 15.140625 71.796875 
Q 19.390625 75.984375 28.609375 75.984375 
z
" id="DejaVuSans-66"/>
    <path d="M 19.671875 64.796875 
L 19.671875 37.40625 
L 32.078125 37.40625 
Q 38.96875 37.40625 42.71875 40.96875 
Q 46.484375 44.53125 46.484375 51.125 
Q 46.484375 57.671875 42.71875 61.234375 
Q 38.96875 64.796875 32.078125 64.796875 
z
M 9.8125 72.90625 
L 32.078125 72.90625 
Q 44.34375 72.90625 50.609375 67.359375 
Q 56.890625 61.8125 56.890625 51.125 
Q 56.890625 40.328125 50.609375 34.8125 
Q 44.34375 29.296875 32.078125 29.296875 
L 19.671875 29.296875 
L 19.671875 0 
L 9.8125 0 
z
" id="DejaVuSans-50"/>
    <path d="M 48.78125 52.59375 
L 48.78125 44.1875 
Q 44.96875 46.296875 41.140625 47.34375 
Q 37.3125 48.390625 33.40625 48.390625 
Q 24.65625 48.390625 19.8125 42.84375 
Q 14.984375 37.3125 14.984375 27.296875 
Q 14.984375 17.28125 19.8125 11.734375 
Q 24.65625 6.203125 33.40625 6.203125 
Q 37.3125 6.203125 41.140625 7.25 
Q 44.96875 8.296875 48.78125 10.40625 
L 48.78125 2.09375 
Q 45.015625 0.34375 40.984375 -0.53125 
Q 36.96875 -1.421875 32.421875 -1.421875 
Q 20.0625 -1.421875 12.78125 6.34375 
Q 5.515625 14.109375 5.515625 27.296875 
Q 5.515625 40.671875 12.859375 48.328125 
Q 20.21875 56 33.015625 56 
Q 37.15625 56 41.109375 55.140625 
Q 45.0625 54.296875 48.78125 52.59375 
z
" id="DejaVuSans-63"/>
    <path d="M 17.921875 72.90625 
L 17.921875 45.796875 
L 9.625 45.796875 
L 9.625 72.90625 
z
M 36.375 72.90625 
L 36.375 45.796875 
L 28.078125 45.796875 
L 28.078125 72.90625 
z
" id="DejaVuSans-22"/>
    <path d="M 4.203125 54.6875 
L 13.1875 54.6875 
L 24.421875 12.015625 
L 35.59375 54.6875 
L 46.1875 54.6875 
L 57.421875 12.015625 
L 68.609375 54.6875 
L 77.59375 54.6875 
L 63.28125 0 
L 52.6875 0 
L 40.921875 44.828125 
L 29.109375 0 
L 18.5 0 
z
" id="DejaVuSans-77"/>
    <path d="M 9.078125 75.984375 
L 18.109375 75.984375 
L 18.109375 31.109375 
L 44.921875 54.6875 
L 56.390625 54.6875 
L 27.390625 29.109375 
L 57.625 0 
L 45.90625 0 
L 18.109375 26.703125 
L 18.109375 0 
L 9.078125 0 
z
" id="DejaVuSans-6b"/>
    <path d="M 4.890625 31.390625 
L 31.203125 31.390625 
L 31.203125 23.390625 
L 4.890625 23.390625 
z
" id="DejaVuSans-2d"/>
   </defs>
   <g transform="translate(227.195625 19.918125)scale(0.12 -0.12)">
    <use xlink:href="#DejaVuSans-4e"/>
    <use x="74.804688" xlink:href="#DejaVuSans-75"/>
    <use x="138.183594" xlink:href="#DejaVuSans-6d"/>
    <use x="235.595703" xlink:href="#DejaVuSans-62"/>
    <use x="299.072266" xlink:href="#DejaVuSans-65"/>
    <use x="360.595703" xlink:href="#DejaVuSans-72"/>
    <use x="401.708984" xlink:href="#DejaVuSans-20"/>
    <use x="433.496094" xlink:href="#DejaVuSans-6f"/>
    <use x="494.677734" xlink:href="#DejaVuSans-66"/>
    <use x="529.882812" xlink:href="#DejaVuSans-20"/>
    <use x="561.669922" xlink:href="#DejaVuSans-50"/>
    <use x="621.957031" xlink:href="#DejaVuSans-75"/>
    <use x="685.335938" xlink:href="#DejaVuSans-62"/>
    <use x="748.8125" xlink:href="#DejaVuSans-6c"/>
    <use x="776.595703" xlink:href="#DejaVuSans-69"/>
    <use x="804.378906" xlink:href="#DejaVuSans-63"/>
    <use x="859.359375" xlink:href="#DejaVuSans-61"/>
    <use x="920.638672" xlink:href="#DejaVuSans-74"/>
    <use x="959.847656" xlink:href="#DejaVuSans-69"/>
    <use x="987.630859" xlink:href="#DejaVuSans-6f"/>
    <use x="1048.8125" xlink:href="#DejaVuSans-6e"/>
    <use x="1112.191406" xlink:href="#DejaVuSans-73"/>
    <use x="1164.291016" xlink:href="#DejaVuSans-20"/>
    <use x="1196.078125" xlink:href="#DejaVuSans-66"/>
    <use x="1231.283203" xlink:href="#DejaVuSans-6f"/>
    <use x="1292.464844" xlink:href="#DejaVuSans-72"/>
    <use x="1333.578125" xlink:href="#DejaVuSans-20"/>
    <use x="1365.365234" xlink:href="#DejaVuSans-22"/>
    <use x="1411.361328" xlink:href="#DejaVuSans-4e"/>
    <use x="1486.166016" xlink:href="#DejaVuSans-65"/>
    <use x="1547.689453" xlink:href="#DejaVuSans-75"/>
    <use x="1611.068359" xlink:href="#DejaVuSans-72"/>
    <use x="1652.181641" xlink:href="#DejaVuSans-61"/>
    <use x="1713.460938" xlink:href="#DejaVuSans-6c"/>
    <use x="1741.244141" xlink:href="#DejaVuSans-20"/>
    <use x="1773.03125" xlink:href="#DejaVuSans-4e"/>
    <use x="1847.835938" xlink:href="#DejaVuSans-65"/>
    <use x="1909.359375" xlink:href="#DejaVuSans-74"/>
    <use x="1948.568359" xlink:href="#DejaVuSans-77"/>
    <use x="2030.355469" xlink:href="#DejaVuSans-6f"/>
    <use x="2091.537109" xlink:href="#DejaVuSans-72"/>
    <use x="2132.650391" xlink:href="#DejaVuSans-6b"/>
    <use x="2190.560547" xlink:href="#DejaVuSans-22"/>
    <use x="2236.556641" xlink:href="#DejaVuSans-20"/>
    <use x="2268.34375" xlink:href="#DejaVuSans-31"/>
    <use x="2331.966797" xlink:href="#DejaVuSans-39"/>
    <use x="2395.589844" xlink:href="#DejaVuSans-36"/>
    <use x="2459.212891" xlink:href="#DejaVuSans-30"/>
    <use x="2522.835938" xlink:href="#DejaVuSans-2d"/>
    <use x="2558.919922" xlink:href="#DejaVuSans-32"/>
    <use x="2622.542969" xlink:href="#DejaVuSans-30"/>
    <use x="2686.166016" xlink:href="#DejaVuSans-31"/>
    <use x="2749.789062" xlink:href="#DejaVuSans-38"/>
   </g>
   <!-- According to Web of Knowledge -->
   <defs>
    <path d="M 45.40625 27.984375 
Q 45.40625 37.75 41.375 43.109375 
Q 37.359375 48.484375 30.078125 48.484375 
Q 22.859375 48.484375 18.828125 43.109375 
Q 14.796875 37.75 14.796875 27.984375 
Q 14.796875 18.265625 18.828125 12.890625 
Q 22.859375 7.515625 30.078125 7.515625 
Q 37.359375 7.515625 41.375 12.890625 
Q 45.40625 18.265625 45.40625 27.984375 
z
M 54.390625 6.78125 
Q 54.390625 -7.171875 48.1875 -13.984375 
Q 42 -20.796875 29.203125 -20.796875 
Q 24.46875 -20.796875 20.265625 -20.09375 
Q 16.0625 -19.390625 12.109375 -17.921875 
L 12.109375 -9.1875 
Q 16.0625 -11.328125 19.921875 -12.34375 
Q 23.78125 -13.375 27.78125 -13.375 
Q 36.625 -13.375 41.015625 -8.765625 
Q 45.40625 -4.15625 45.40625 5.171875 
L 45.40625 9.625 
Q 42.625 4.78125 38.28125 2.390625 
Q 33.9375 0 27.875 0 
Q 17.828125 0 11.671875 7.65625 
Q 5.515625 15.328125 5.515625 27.984375 
Q 5.515625 40.671875 11.671875 48.328125 
Q 17.828125 56 27.875 56 
Q 33.9375 56 38.28125 53.609375 
Q 42.625 51.21875 45.40625 46.390625 
L 45.40625 54.6875 
L 54.390625 54.6875 
z
" id="DejaVuSans-67"/>
    <path d="M 9.8125 72.90625 
L 19.671875 72.90625 
L 19.671875 42.09375 
L 52.390625 72.90625 
L 65.09375 72.90625 
L 28.90625 38.921875 
L 67.671875 0 
L 54.6875 0 
L 19.671875 35.109375 
L 19.671875 0 
L 9.8125 0 
z
" id="DejaVuSans-4b"/>
   </defs>
   <g transform="translate(300.226875 33.3555)scale(0.12 -0.12)">
    <use xlink:href="#DejaVuSans-41"/>
    <use x="68.392578" xlink:href="#DejaVuSans-63"/>
    <use x="123.373047" xlink:href="#DejaVuSans-63"/>
    <use x="178.353516" xlink:href="#DejaVuSans-6f"/>
    <use x="239.535156" xlink:href="#DejaVuSans-72"/>
    <use x="280.632812" xlink:href="#DejaVuSans-64"/>
    <use x="344.109375" xlink:href="#DejaVuSans-69"/>
    <use x="371.892578" xlink:href="#DejaVuSans-6e"/>
    <use x="435.271484" xlink:href="#DejaVuSans-67"/>
    <use x="498.748047" xlink:href="#DejaVuSans-20"/>
    <use x="530.535156" xlink:href="#DejaVuSans-74"/>
    <use x="569.744141" xlink:href="#DejaVuSans-6f"/>
    <use x="630.925781" xlink:href="#DejaVuSans-20"/>
    <use x="662.712891" xlink:href="#DejaVuSans-57"/>
    <use x="761.511719" xlink:href="#DejaVuSans-65"/>
    <use x="823.035156" xlink:href="#DejaVuSans-62"/>
    <use x="886.511719" xlink:href="#DejaVuSans-20"/>
    <use x="918.298828" xlink:href="#DejaVuSans-6f"/>
    <use x="979.480469" xlink:href="#DejaVuSans-66"/>
    <use x="1014.685547" xlink:href="#DejaVuSans-20"/>
    <use x="1046.472656" xlink:href="#DejaVuSans-4b"/>
    <use x="1112.048828" xlink:href="#DejaVuSans-6e"/>
    <use x="1175.427734" xlink:href="#DejaVuSans-6f"/>
    <use x="1236.609375" xlink:href="#DejaVuSans-77"/>
    <use x="1318.396484" xlink:href="#DejaVuSans-6c"/>
    <use x="1346.179688" xlink:href="#DejaVuSans-65"/>
    <use x="1407.703125" xlink:href="#DejaVuSans-64"/>
    <use x="1471.179688" xlink:href="#DejaVuSans-67"/>
    <use x="1534.65625" xlink:href="#DejaVuSans-65"/>
   </g>
  </g>
 </g>
 <defs>
  <clipPath id="pe4df860d24">
   <rect height="473.375" width="702.00625" x="57.81875" y="23.0625"/>
  </clipPath>
 </defs>
</svg>
